<mxfile host="app.diagrams.net" agent="Mozilla/5.0 (Windows NT 10.0; Win64; x64) AppleWebKit/537.36 (KHTML, like Gecko) Chrome/128.0.0.0 Safari/537.36 Edg/128.0.0.0" version="24.7.12">
  <diagram name="Page-1" id="_pQMfAFOHUYNQVixBs1I">
    <mxGraphModel dx="1426" dy="767" grid="1" gridSize="10" guides="1" tooltips="1" connect="1" arrows="1" fold="1" page="1" pageScale="1" pageWidth="827" pageHeight="1169" math="0" shadow="0">
      <root>
        <mxCell id="0" />
        <mxCell id="1" parent="0" />
        <mxCell id="c7hjdYba2SUFyFxSfcjP-1" value="&lt;font style=&quot;font-size: 50px;&quot;&gt;Admiral DR&lt;/font&gt;" style="text;html=1;align=center;verticalAlign=middle;resizable=0;points=[];autosize=1;strokeColor=none;fillColor=none;" vertex="1" parent="1">
          <mxGeometry x="250" y="100" width="280" height="70" as="geometry" />
        </mxCell>
        <mxCell id="c7hjdYba2SUFyFxSfcjP-2" value="" style="shape=image;verticalLabelPosition=bottom;labelBackgroundColor=#ffffff;verticalAlign=top;aspect=fixed;imageAspect=0;image=data:image/svg+xml,PHN2ZyB4bWxuczpkYz0iaHR0cDovL3B1cmwub3JnL2RjL2VsZW1lbnRzLzEuMS8iIHhtbG5zOmNjPSJodHRwOi8vY3JlYXRpdmVjb21tb25zLm9yZy9ucyMiIHhtbG5zOnJkZj0iaHR0cDovL3d3dy53My5vcmcvMTk5OS8wMi8yMi1yZGYtc3ludGF4LW5zIyIgeG1sbnM6c3ZnPSJodHRwOi8vd3d3LnczLm9yZy8yMDAwL3N2ZyIgeG1sbnM9Imh0dHA6Ly93d3cudzMub3JnLzIwMDAvc3ZnIiB4bWxuczpzb2RpcG9kaT0iaHR0cDovL3NvZGlwb2RpLnNvdXJjZWZvcmdlLm5ldC9EVEQvc29kaXBvZGktMC5kdGQiIHhtbG5zOmlua3NjYXBlPSJodHRwOi8vd3d3Lmlua3NjYXBlLm9yZy9uYW1lc3BhY2VzL2lua3NjYXBlIiB2ZXJzaW9uPSIxLjEiIGlkPSJzdmc1NjAxOCIgaW5rc2NhcGU6dmVyc2lvbj0iMC45Mi4zICgyNDA1NTQ2LCAyMDE4LTAzLTExKSIgc29kaXBvZGk6ZG9jbmFtZT0iYXp1cmVfY29udGFpbmVyLnN2ZyIgeD0iMHB4IiB5PSIwcHgiIHZpZXdCb3g9IjAgMCA2NS41MiA0OC40OSIgeG1sOnNwYWNlPSJwcmVzZXJ2ZSIgd2lkdGg9IjY1LjUxOTk5NyIgaGVpZ2h0PSI0OC40OTAwMDIiPjxtZXRhZGF0YSBpZD0ibWV0YWRhdGE1NTM4Ij48cmRmOlJERj48Y2M6V29yayByZGY6YWJvdXQ9IiI+PGRjOmZvcm1hdD5pbWFnZS9zdmcreG1sPC9kYzpmb3JtYXQ+PGRjOnR5cGUgcmRmOnJlc291cmNlPSJodHRwOi8vcHVybC5vcmcvZGMvZGNtaXR5cGUvU3RpbGxJbWFnZSIvPjxkYzp0aXRsZS8+PC9jYzpXb3JrPjwvcmRmOlJERj48L21ldGFkYXRhPjxkZWZzIGlkPSJkZWZzNTUzNiIvPiYjeGE7PGZpbHRlciBpZD0iZmlsdGVyXzIiPiYjeGE7CTxmZUdhdXNzaWFuQmx1ciBpZD0iZmVHYXVzc2lhbkJsdXI1NTgzOSIgc3RkRGV2aWF0aW9uPSIyIi8+JiN4YTs8L2ZpbHRlcj4mI3hhOzxzb2RpcG9kaTpuYW1lZHZpZXcgYm9yZGVyY29sb3I9IiM2NjY2NjYiIGJvcmRlcm9wYWNpdHk9IjEiIGZpdC1tYXJnaW4tYm90dG9tPSIwIiBmaXQtbWFyZ2luLWxlZnQ9IjAiIGZpdC1tYXJnaW4tcmlnaHQ9IjAiIGZpdC1tYXJnaW4tdG9wPSIwIiBncmlkdG9sZXJhbmNlPSIxMCIgZ3VpZGV0b2xlcmFuY2U9IjEwIiBpZD0ibmFtZWR2aWV3NTYwMjAiIGlua3NjYXBlOmN1cnJlbnQtbGF5ZXI9InN2ZzU2MDE4IiBpbmtzY2FwZTpjeD0iLTMuNDYzNzEzOSIgaW5rc2NhcGU6Y3k9IjIwLjQ1NjkyNyIgaW5rc2NhcGU6cGFnZW9wYWNpdHk9IjAiIGlua3NjYXBlOnBhZ2VzaGFkb3c9IjIiIGlua3NjYXBlOndpbmRvdy1oZWlnaHQ9IjEwMTciIGlua3NjYXBlOndpbmRvdy1tYXhpbWl6ZWQ9IjEiIGlua3NjYXBlOndpbmRvdy13aWR0aD0iMTkyMCIgaW5rc2NhcGU6d2luZG93LXg9Ii04IiBpbmtzY2FwZTp3aW5kb3cteT0iLTgiIGlua3NjYXBlOnpvb209IjguOTExNjU1NyIgb2JqZWN0dG9sZXJhbmNlPSIxMCIgcGFnZWNvbG9yPSIjZmZmZmZmIiBzaG93Z3JpZD0iZmFsc2UiPiYjeGE7CTwvc29kaXBvZGk6bmFtZWR2aWV3PiYjeGE7JiN4YTs8cGF0aCBpZD0icGF0aDU1ODUyIiBpbmtzY2FwZTpjb25uZWN0b3ItY3VydmF0dXJlPSIwIiBzdHlsZT0iZmlsbDojODA0OTk4IiBkPSJNIDMwLjAxLDEyLjMyIDE5LjkyLDE2LjI1IFYgMCBsIDEwLjA5LDMuNTQgeiIvPiYjeGE7JiN4YTs8cGF0aCBpZD0icGF0aDU1ODYwIiBpbmtzY2FwZTpjb25uZWN0b3ItY3VydmF0dXJlPSIwIiBzdHlsZT0iZmlsbDojODA0OTk4IiBkPSJtIDEwLjg4LDIuNzUgdiAxMC42MSBsIDcuNDcsMi44OSBWIDAuMTMgWiBtIDAuNzksOS44MyAtMC40LC0wLjEzIFYgMy42NyBsIDAuNCwtMC4xMyAwLjM5LC0wLjE0IDAuMzksLTAuMTMgdiA5LjU3IGwgLTAuMzksLTAuMTMgeiBtIDEuOTYsMC41MiAtMC41MiwtMC4xMyBWIDMuMTQgbCAwLjUyLC0wLjEzIDAuNTMsLTAuMTMgMC41MiwtMC4xMyB2IDEwLjc0IGwgLTAuNTIsLTAuMTMgeiBtIDIuMzYsMC43OSAtMC42NSwtMC4yNiBWIDIuNDkgbCAwLjY1LC0wLjEzIDAuNjYsLTAuMjcgMC43OCwtMC4yNiB2IDEyLjQ1IGwgLTAuNzgsLTAuMjYgeiIvPiYjeGE7JiN4YTs8cGF0aCBpZD0icGF0aDU1ODY4IiBpbmtzY2FwZTpjb25uZWN0b3ItY3VydmF0dXJlPSIwIiBzdHlsZT0iZmlsbDojODA0OTk4IiBkPSJNIDUzLjQ3LDEyLjMyIDQzLjM4LDE2LjI1IFYgMCBsIDEwLjA5LDMuNTQgeiIvPiYjeGE7JiN4YTs8cGF0aCBpZD0icGF0aDU1ODc2IiBpbmtzY2FwZTpjb25uZWN0b3ItY3VydmF0dXJlPSIwIiBzdHlsZT0iZmlsbDojODA0OTk4IiBkPSJtIDM0LjMzLDIuNzUgdiAxMC42MSBsIDcuNDcsMi44OSBWIDAuMTMgWiBtIDAuNzksOS44MyAtMC40LC0wLjEzIFYgMy42NyBMIDM1LjEyLDMuNTQgMzUuNTEsMy40IDM1LjksMy4yNyB2IDkuNTcgbCAtMC4zOSwtMC4xMyB6IG0gMS45NiwwLjUyIC0wLjUyLC0wLjEzIFYgMy4xNCBsIDAuNTIsLTAuMTMgMC41MywtMC4xMyAwLjUyLC0wLjEzIHYgMTAuNzQgbCAtMC41MiwtMC4xMyB6IG0gMi4zNiwwLjc5IC0wLjY1LC0wLjI2IFYgMi40OSBMIDM5LjQ0LDIuMzYgNDAuMSwyLjA5IDQwLjg4LDEuODMgViAxNC4yOCBMIDQwLjEsMTQuMDIgWiIvPiYjeGE7JiN4YTs8cGF0aCBpZD0icGF0aDU1ODg0IiBpbmtzY2FwZTpjb25uZWN0b3ItY3VydmF0dXJlPSIwIiBzdHlsZT0iZmlsbDojODA0OTk4IiBkPSJNIDMwLjAxLDQ0LjU2IDE5LjkyLDQ4LjQ5IFYgMzIuMjQgbCAxMC4wOSwzLjU0IHoiLz4mI3hhOyYjeGE7PHBhdGggaWQ9InBhdGg1NTg5MiIgaW5rc2NhcGU6Y29ubmVjdG9yLWN1cnZhdHVyZT0iMCIgc3R5bGU9ImZpbGw6IzgwNDk5OCIgZD0iTSAxMC44OCwzNC45OSBWIDQ1LjYgbCA3LjQ3LDIuODkgViAzMi4zNyBaIG0gMC43OSw5LjgzIC0wLjQsLTAuMTMgdiAtOC43OCBsIDAuNCwtMC4xMyAwLjM5LC0wLjE0IDAuMzksLTAuMTMgdiA5LjU3IGwgLTAuMzksLTAuMTMgeiBtIDEuOTYsMC41MiAtMC41MiwtMC4xMyB2IC05LjgzIGwgMC41MiwtMC4xMyAwLjUzLC0wLjEzIDAuNTIsLTAuMTMgViA0NS43MyBMIDE0LjE2LDQ1LjYgWiBtIDIuMzYsMC43OSAtMC42NSwtMC4yNiBWIDM0LjczIGwgMC42NSwtMC4xMyAwLjY2LC0wLjI3IDAuNzgsLTAuMjYgdiAxMi40NSBsIC0wLjc4LC0wLjI2IHoiLz4mI3hhOyYjeGE7PHBhdGggaWQ9InBhdGg1NTkwMCIgaW5rc2NhcGU6Y29ubmVjdG9yLWN1cnZhdHVyZT0iMCIgc3R5bGU9ImZpbGw6IzgwNDk5OCIgZD0iTSA1My40Nyw0NC41NiA0My4zOCw0OC40OSBWIDMyLjI0IGwgMTAuMDksMy41NCB6Ii8+JiN4YTsmI3hhOzxwYXRoIGlkPSJwYXRoNTU5MDgiIGlua3NjYXBlOmNvbm5lY3Rvci1jdXJ2YXR1cmU9IjAiIHN0eWxlPSJmaWxsOiM4MDQ5OTgiIGQ9Ik0gMzQuMzMsMzQuOTkgViA0NS42IGwgNy40NywyLjg5IFYgMzIuMzcgWiBtIDAuNzksOS44MyAtMC40LC0wLjEzIHYgLTguNzggbCAwLjQsLTAuMTMgMC4zOSwtMC4xNCAwLjM5LC0wLjEzIHYgOS41NyBsIC0wLjM5LC0wLjEzIHogbSAxLjk2LDAuNTIgLTAuNTIsLTAuMTMgdiAtOS44MyBsIDAuNTIsLTAuMTMgMC41MywtMC4xMyAwLjUyLC0wLjEzIFYgNDUuNzMgTCAzNy42MSw0NS42IFogbSAyLjM2LDAuNzkgLTAuNjUsLTAuMjYgViAzNC43MyBsIDAuNjUsLTAuMTMgMC42NiwtMC4yNyAwLjc4LC0wLjI2IFYgNDYuNTIgTCA0MC4xLDQ2LjI2IFoiLz4mI3hhOyYjeGE7PHBhdGggaWQ9InBhdGg1NTkxNiIgaW5rc2NhcGU6Y29ubmVjdG9yLWN1cnZhdHVyZT0iMCIgc3R5bGU9ImZpbGw6IzgwNDk5OCIgZD0ibSA0Mi40NiwyOC40NCAtOS45NiwzLjggViAxNi4xMiBsIDkuOTYsMy41NCB6Ii8+JiN4YTsmI3hhOzxwYXRoIGlkPSJwYXRoNTU5MjQiIGlua3NjYXBlOmNvbm5lY3Rvci1jdXJ2YXR1cmU9IjAiIHN0eWxlPSJmaWxsOiM4MDQ5OTgiIGQ9Im0gMjMuMzMsMTguNzQgdiAxMC42MSBsIDcuNDcsMi44OSBWIDE2LjEyIFogbSAwLjc5LDkuODMgLTAuNCwtMC4xMyB2IC04Ljc4IGwgMC40LC0wLjEzIDAuMzksLTAuMTQgMC4zOSwtMC4xMyB2IDkuNTcgTCAyNC41MSwyOC43IFogbSAxLjk2LDAuNjUgLTAuNTIsLTAuMTMgdiAtOS44MyBsIDAuNTIsLTAuMTMgMC41MywtMC4xMyAwLjUyLC0wLjEzIHYgMTAuNzUgbCAtMC41MiwtMC4xNCB6IG0gMi4zNiwwLjc5IC0wLjY1LC0wLjI2IFYgMTguNjEgbCAwLjY1LC0wLjEzIDAuNjYsLTAuMjcgMC43OCwtMC4yNiBWIDMwLjQgTCAyOS4xLDMwLjE0IFoiLz4mI3hhOyYjeGE7PHBhdGggaWQ9InBhdGg1NTkzMiIgaW5rc2NhcGU6Y29ubmVjdG9yLWN1cnZhdHVyZT0iMCIgc3R5bGU9ImZpbGw6IzgwNDk5OCIgZD0ibSAxOS4xMywyOC40NCAtOS45NiwzLjggViAxNi4xMiBsIDkuOTYsMy41NCB6Ii8+JiN4YTsmI3hhOzxwYXRoIGlkPSJwYXRoNTU5NDAiIGlua3NjYXBlOmNvbm5lY3Rvci1jdXJ2YXR1cmU9IjAiIHN0eWxlPSJmaWxsOiM4MDQ5OTgiIGQ9Im0gMCwxOC43NCB2IDEwLjYxIGwgNy40NywyLjg5IFYgMTYuMTIgWiBtIDAuNzksOS44MyAtMC40LC0wLjEzIHYgLTguNzggbCAwLjQsLTAuMTMgMC4zOSwtMC4xNCAwLjM5LC0wLjEzIHYgOS41NyBMIDEuMTgsMjguNyBaIE0gMi43NSwyOS4yMiAyLjIzLDI5LjA5IFYgMTkuMjYgTCAyLjc1LDE5LjEzIDMuMjgsMTkgMy44LDE4Ljg3IFYgMjkuNjIgTCAzLjI4LDI5LjQ4IFogTSA1LjExLDMwLjAxIDQuNDYsMjkuNzUgViAxOC42MSBMIDUuMTEsMTguNDggNS43NywxOC4yMSA2LjU1LDE3Ljk1IFYgMzAuNCBMIDUuNzcsMzAuMTQgWiIvPiYjeGE7JiN4YTs8cGF0aCBpZD0icGF0aDU1OTQ4IiBpbmtzY2FwZTpjb25uZWN0b3ItY3VydmF0dXJlPSIwIiBzdHlsZT0iZmlsbDojODA0OTk4IiBkPSJtIDY1LjUyLDI4LjQ0IC05Ljk2LDMuOCBWIDE2LjEyIGwgOS45NiwzLjU0IHoiLz4mI3hhOyYjeGE7JiN4YTsmI3hhOyYjeGE7JiN4YTsmI3hhOyYjeGE7JiN4YTsmI3hhOyYjeGE7JiN4YTsmI3hhOyYjeGE7JiN4YTsmI3hhOzxwYXRoIGlkPSJwYXRoNTYwMTIiIGlua3NjYXBlOmNvbm5lY3Rvci1jdXJ2YXR1cmU9IjAiIHN0eWxlPSJmaWxsOiM4MDQ5OTgiIGQ9Im0gNDYuMzksMTguNzQgdiAxMC42MSBsIDcuNDcsMi44OSBWIDE2LjEyIFogbSAwLjc5LDkuODMgLTAuNCwtMC4xMyB2IC04Ljc4IGwgMC40LC0wLjEzIDAuMzksLTAuMTQgMC4zOSwtMC4xMyB2IDkuNTcgTCA0Ny41NywyOC43IFogbSAxLjk2LDAuNjUgLTAuNTIsLTAuMTMgdiAtOS44MyBsIDAuNTIsLTAuMTMgMC41MywtMC4xMyAwLjUyLC0wLjEzIHYgMTAuNzUgbCAtMC41MiwtMC4xNCB6IG0gMi4zNiwwLjc5IC0wLjY1LC0wLjI2IFYgMTguNjEgbCAwLjY1LC0wLjEzIDAuNjYsLTAuMjcgMC43OCwtMC4yNiBWIDMwLjQgbCAtMC43OCwtMC4yNiB6Ii8+JiN4YTs8L3N2Zz4=;" vertex="1" parent="1">
          <mxGeometry x="160" y="570" width="110" height="80" as="geometry" />
        </mxCell>
        <mxCell id="c7hjdYba2SUFyFxSfcjP-3" value="" style="shape=image;verticalLabelPosition=bottom;labelBackgroundColor=#ffffff;verticalAlign=top;aspect=fixed;imageAspect=0;image=data:image/svg+xml,PHN2ZyB4bWxuczpkYz0iaHR0cDovL3B1cmwub3JnL2RjL2VsZW1lbnRzLzEuMS8iIHhtbG5zOmNjPSJodHRwOi8vY3JlYXRpdmVjb21tb25zLm9yZy9ucyMiIHhtbG5zOnJkZj0iaHR0cDovL3d3dy53My5vcmcvMTk5OS8wMi8yMi1yZGYtc3ludGF4LW5zIyIgeG1sbnM6c3ZnPSJodHRwOi8vd3d3LnczLm9yZy8yMDAwL3N2ZyIgeG1sbnM9Imh0dHA6Ly93d3cudzMub3JnLzIwMDAvc3ZnIiB4bWxuczpzb2RpcG9kaT0iaHR0cDovL3NvZGlwb2RpLnNvdXJjZWZvcmdlLm5ldC9EVEQvc29kaXBvZGktMC5kdGQiIHhtbG5zOmlua3NjYXBlPSJodHRwOi8vd3d3Lmlua3NjYXBlLm9yZy9uYW1lc3BhY2VzL2lua3NjYXBlIiB2ZXJzaW9uPSIxLjEiIGlkPSJzdmc1NjAxOCIgaW5rc2NhcGU6dmVyc2lvbj0iMC45Mi4zICgyNDA1NTQ2LCAyMDE4LTAzLTExKSIgc29kaXBvZGk6ZG9jbmFtZT0iYXp1cmVfY29udGFpbmVyLnN2ZyIgeD0iMHB4IiB5PSIwcHgiIHZpZXdCb3g9IjAgMCA2NS41MiA0OC40OSIgeG1sOnNwYWNlPSJwcmVzZXJ2ZSIgd2lkdGg9IjY1LjUxOTk5NyIgaGVpZ2h0PSI0OC40OTAwMDIiPjxtZXRhZGF0YSBpZD0ibWV0YWRhdGE1NTM4Ij48cmRmOlJERj48Y2M6V29yayByZGY6YWJvdXQ9IiI+PGRjOmZvcm1hdD5pbWFnZS9zdmcreG1sPC9kYzpmb3JtYXQ+PGRjOnR5cGUgcmRmOnJlc291cmNlPSJodHRwOi8vcHVybC5vcmcvZGMvZGNtaXR5cGUvU3RpbGxJbWFnZSIvPjxkYzp0aXRsZS8+PC9jYzpXb3JrPjwvcmRmOlJERj48L21ldGFkYXRhPjxkZWZzIGlkPSJkZWZzNTUzNiIvPiYjeGE7PGZpbHRlciBpZD0iZmlsdGVyXzIiPiYjeGE7CTxmZUdhdXNzaWFuQmx1ciBpZD0iZmVHYXVzc2lhbkJsdXI1NTgzOSIgc3RkRGV2aWF0aW9uPSIyIi8+JiN4YTs8L2ZpbHRlcj4mI3hhOzxzb2RpcG9kaTpuYW1lZHZpZXcgYm9yZGVyY29sb3I9IiM2NjY2NjYiIGJvcmRlcm9wYWNpdHk9IjEiIGZpdC1tYXJnaW4tYm90dG9tPSIwIiBmaXQtbWFyZ2luLWxlZnQ9IjAiIGZpdC1tYXJnaW4tcmlnaHQ9IjAiIGZpdC1tYXJnaW4tdG9wPSIwIiBncmlkdG9sZXJhbmNlPSIxMCIgZ3VpZGV0b2xlcmFuY2U9IjEwIiBpZD0ibmFtZWR2aWV3NTYwMjAiIGlua3NjYXBlOmN1cnJlbnQtbGF5ZXI9InN2ZzU2MDE4IiBpbmtzY2FwZTpjeD0iLTMuNDYzNzEzOSIgaW5rc2NhcGU6Y3k9IjIwLjQ1NjkyNyIgaW5rc2NhcGU6cGFnZW9wYWNpdHk9IjAiIGlua3NjYXBlOnBhZ2VzaGFkb3c9IjIiIGlua3NjYXBlOndpbmRvdy1oZWlnaHQ9IjEwMTciIGlua3NjYXBlOndpbmRvdy1tYXhpbWl6ZWQ9IjEiIGlua3NjYXBlOndpbmRvdy13aWR0aD0iMTkyMCIgaW5rc2NhcGU6d2luZG93LXg9Ii04IiBpbmtzY2FwZTp3aW5kb3cteT0iLTgiIGlua3NjYXBlOnpvb209IjguOTExNjU1NyIgb2JqZWN0dG9sZXJhbmNlPSIxMCIgcGFnZWNvbG9yPSIjZmZmZmZmIiBzaG93Z3JpZD0iZmFsc2UiPiYjeGE7CTwvc29kaXBvZGk6bmFtZWR2aWV3PiYjeGE7JiN4YTs8cGF0aCBpZD0icGF0aDU1ODUyIiBpbmtzY2FwZTpjb25uZWN0b3ItY3VydmF0dXJlPSIwIiBzdHlsZT0iZmlsbDojODA0OTk4IiBkPSJNIDMwLjAxLDEyLjMyIDE5LjkyLDE2LjI1IFYgMCBsIDEwLjA5LDMuNTQgeiIvPiYjeGE7JiN4YTs8cGF0aCBpZD0icGF0aDU1ODYwIiBpbmtzY2FwZTpjb25uZWN0b3ItY3VydmF0dXJlPSIwIiBzdHlsZT0iZmlsbDojODA0OTk4IiBkPSJtIDEwLjg4LDIuNzUgdiAxMC42MSBsIDcuNDcsMi44OSBWIDAuMTMgWiBtIDAuNzksOS44MyAtMC40LC0wLjEzIFYgMy42NyBsIDAuNCwtMC4xMyAwLjM5LC0wLjE0IDAuMzksLTAuMTMgdiA5LjU3IGwgLTAuMzksLTAuMTMgeiBtIDEuOTYsMC41MiAtMC41MiwtMC4xMyBWIDMuMTQgbCAwLjUyLC0wLjEzIDAuNTMsLTAuMTMgMC41MiwtMC4xMyB2IDEwLjc0IGwgLTAuNTIsLTAuMTMgeiBtIDIuMzYsMC43OSAtMC42NSwtMC4yNiBWIDIuNDkgbCAwLjY1LC0wLjEzIDAuNjYsLTAuMjcgMC43OCwtMC4yNiB2IDEyLjQ1IGwgLTAuNzgsLTAuMjYgeiIvPiYjeGE7JiN4YTs8cGF0aCBpZD0icGF0aDU1ODY4IiBpbmtzY2FwZTpjb25uZWN0b3ItY3VydmF0dXJlPSIwIiBzdHlsZT0iZmlsbDojODA0OTk4IiBkPSJNIDUzLjQ3LDEyLjMyIDQzLjM4LDE2LjI1IFYgMCBsIDEwLjA5LDMuNTQgeiIvPiYjeGE7JiN4YTs8cGF0aCBpZD0icGF0aDU1ODc2IiBpbmtzY2FwZTpjb25uZWN0b3ItY3VydmF0dXJlPSIwIiBzdHlsZT0iZmlsbDojODA0OTk4IiBkPSJtIDM0LjMzLDIuNzUgdiAxMC42MSBsIDcuNDcsMi44OSBWIDAuMTMgWiBtIDAuNzksOS44MyAtMC40LC0wLjEzIFYgMy42NyBMIDM1LjEyLDMuNTQgMzUuNTEsMy40IDM1LjksMy4yNyB2IDkuNTcgbCAtMC4zOSwtMC4xMyB6IG0gMS45NiwwLjUyIC0wLjUyLC0wLjEzIFYgMy4xNCBsIDAuNTIsLTAuMTMgMC41MywtMC4xMyAwLjUyLC0wLjEzIHYgMTAuNzQgbCAtMC41MiwtMC4xMyB6IG0gMi4zNiwwLjc5IC0wLjY1LC0wLjI2IFYgMi40OSBMIDM5LjQ0LDIuMzYgNDAuMSwyLjA5IDQwLjg4LDEuODMgViAxNC4yOCBMIDQwLjEsMTQuMDIgWiIvPiYjeGE7JiN4YTs8cGF0aCBpZD0icGF0aDU1ODg0IiBpbmtzY2FwZTpjb25uZWN0b3ItY3VydmF0dXJlPSIwIiBzdHlsZT0iZmlsbDojODA0OTk4IiBkPSJNIDMwLjAxLDQ0LjU2IDE5LjkyLDQ4LjQ5IFYgMzIuMjQgbCAxMC4wOSwzLjU0IHoiLz4mI3hhOyYjeGE7PHBhdGggaWQ9InBhdGg1NTg5MiIgaW5rc2NhcGU6Y29ubmVjdG9yLWN1cnZhdHVyZT0iMCIgc3R5bGU9ImZpbGw6IzgwNDk5OCIgZD0iTSAxMC44OCwzNC45OSBWIDQ1LjYgbCA3LjQ3LDIuODkgViAzMi4zNyBaIG0gMC43OSw5LjgzIC0wLjQsLTAuMTMgdiAtOC43OCBsIDAuNCwtMC4xMyAwLjM5LC0wLjE0IDAuMzksLTAuMTMgdiA5LjU3IGwgLTAuMzksLTAuMTMgeiBtIDEuOTYsMC41MiAtMC41MiwtMC4xMyB2IC05LjgzIGwgMC41MiwtMC4xMyAwLjUzLC0wLjEzIDAuNTIsLTAuMTMgViA0NS43MyBMIDE0LjE2LDQ1LjYgWiBtIDIuMzYsMC43OSAtMC42NSwtMC4yNiBWIDM0LjczIGwgMC42NSwtMC4xMyAwLjY2LC0wLjI3IDAuNzgsLTAuMjYgdiAxMi40NSBsIC0wLjc4LC0wLjI2IHoiLz4mI3hhOyYjeGE7PHBhdGggaWQ9InBhdGg1NTkwMCIgaW5rc2NhcGU6Y29ubmVjdG9yLWN1cnZhdHVyZT0iMCIgc3R5bGU9ImZpbGw6IzgwNDk5OCIgZD0iTSA1My40Nyw0NC41NiA0My4zOCw0OC40OSBWIDMyLjI0IGwgMTAuMDksMy41NCB6Ii8+JiN4YTsmI3hhOzxwYXRoIGlkPSJwYXRoNTU5MDgiIGlua3NjYXBlOmNvbm5lY3Rvci1jdXJ2YXR1cmU9IjAiIHN0eWxlPSJmaWxsOiM4MDQ5OTgiIGQ9Ik0gMzQuMzMsMzQuOTkgViA0NS42IGwgNy40NywyLjg5IFYgMzIuMzcgWiBtIDAuNzksOS44MyAtMC40LC0wLjEzIHYgLTguNzggbCAwLjQsLTAuMTMgMC4zOSwtMC4xNCAwLjM5LC0wLjEzIHYgOS41NyBsIC0wLjM5LC0wLjEzIHogbSAxLjk2LDAuNTIgLTAuNTIsLTAuMTMgdiAtOS44MyBsIDAuNTIsLTAuMTMgMC41MywtMC4xMyAwLjUyLC0wLjEzIFYgNDUuNzMgTCAzNy42MSw0NS42IFogbSAyLjM2LDAuNzkgLTAuNjUsLTAuMjYgViAzNC43MyBsIDAuNjUsLTAuMTMgMC42NiwtMC4yNyAwLjc4LC0wLjI2IFYgNDYuNTIgTCA0MC4xLDQ2LjI2IFoiLz4mI3hhOyYjeGE7PHBhdGggaWQ9InBhdGg1NTkxNiIgaW5rc2NhcGU6Y29ubmVjdG9yLWN1cnZhdHVyZT0iMCIgc3R5bGU9ImZpbGw6IzgwNDk5OCIgZD0ibSA0Mi40NiwyOC40NCAtOS45NiwzLjggViAxNi4xMiBsIDkuOTYsMy41NCB6Ii8+JiN4YTsmI3hhOzxwYXRoIGlkPSJwYXRoNTU5MjQiIGlua3NjYXBlOmNvbm5lY3Rvci1jdXJ2YXR1cmU9IjAiIHN0eWxlPSJmaWxsOiM4MDQ5OTgiIGQ9Im0gMjMuMzMsMTguNzQgdiAxMC42MSBsIDcuNDcsMi44OSBWIDE2LjEyIFogbSAwLjc5LDkuODMgLTAuNCwtMC4xMyB2IC04Ljc4IGwgMC40LC0wLjEzIDAuMzksLTAuMTQgMC4zOSwtMC4xMyB2IDkuNTcgTCAyNC41MSwyOC43IFogbSAxLjk2LDAuNjUgLTAuNTIsLTAuMTMgdiAtOS44MyBsIDAuNTIsLTAuMTMgMC41MywtMC4xMyAwLjUyLC0wLjEzIHYgMTAuNzUgbCAtMC41MiwtMC4xNCB6IG0gMi4zNiwwLjc5IC0wLjY1LC0wLjI2IFYgMTguNjEgbCAwLjY1LC0wLjEzIDAuNjYsLTAuMjcgMC43OCwtMC4yNiBWIDMwLjQgTCAyOS4xLDMwLjE0IFoiLz4mI3hhOyYjeGE7PHBhdGggaWQ9InBhdGg1NTkzMiIgaW5rc2NhcGU6Y29ubmVjdG9yLWN1cnZhdHVyZT0iMCIgc3R5bGU9ImZpbGw6IzgwNDk5OCIgZD0ibSAxOS4xMywyOC40NCAtOS45NiwzLjggViAxNi4xMiBsIDkuOTYsMy41NCB6Ii8+JiN4YTsmI3hhOzxwYXRoIGlkPSJwYXRoNTU5NDAiIGlua3NjYXBlOmNvbm5lY3Rvci1jdXJ2YXR1cmU9IjAiIHN0eWxlPSJmaWxsOiM4MDQ5OTgiIGQ9Im0gMCwxOC43NCB2IDEwLjYxIGwgNy40NywyLjg5IFYgMTYuMTIgWiBtIDAuNzksOS44MyAtMC40LC0wLjEzIHYgLTguNzggbCAwLjQsLTAuMTMgMC4zOSwtMC4xNCAwLjM5LC0wLjEzIHYgOS41NyBMIDEuMTgsMjguNyBaIE0gMi43NSwyOS4yMiAyLjIzLDI5LjA5IFYgMTkuMjYgTCAyLjc1LDE5LjEzIDMuMjgsMTkgMy44LDE4Ljg3IFYgMjkuNjIgTCAzLjI4LDI5LjQ4IFogTSA1LjExLDMwLjAxIDQuNDYsMjkuNzUgViAxOC42MSBMIDUuMTEsMTguNDggNS43NywxOC4yMSA2LjU1LDE3Ljk1IFYgMzAuNCBMIDUuNzcsMzAuMTQgWiIvPiYjeGE7JiN4YTs8cGF0aCBpZD0icGF0aDU1OTQ4IiBpbmtzY2FwZTpjb25uZWN0b3ItY3VydmF0dXJlPSIwIiBzdHlsZT0iZmlsbDojODA0OTk4IiBkPSJtIDY1LjUyLDI4LjQ0IC05Ljk2LDMuOCBWIDE2LjEyIGwgOS45NiwzLjU0IHoiLz4mI3hhOyYjeGE7JiN4YTsmI3hhOyYjeGE7JiN4YTsmI3hhOyYjeGE7JiN4YTsmI3hhOyYjeGE7JiN4YTsmI3hhOyYjeGE7JiN4YTsmI3hhOzxwYXRoIGlkPSJwYXRoNTYwMTIiIGlua3NjYXBlOmNvbm5lY3Rvci1jdXJ2YXR1cmU9IjAiIHN0eWxlPSJmaWxsOiM4MDQ5OTgiIGQ9Im0gNDYuMzksMTguNzQgdiAxMC42MSBsIDcuNDcsMi44OSBWIDE2LjEyIFogbSAwLjc5LDkuODMgLTAuNCwtMC4xMyB2IC04Ljc4IGwgMC40LC0wLjEzIDAuMzksLTAuMTQgMC4zOSwtMC4xMyB2IDkuNTcgTCA0Ny41NywyOC43IFogbSAxLjk2LDAuNjUgLTAuNTIsLTAuMTMgdiAtOS44MyBsIDAuNTIsLTAuMTMgMC41MywtMC4xMyAwLjUyLC0wLjEzIHYgMTAuNzUgbCAtMC41MiwtMC4xNCB6IG0gMi4zNiwwLjc5IC0wLjY1LC0wLjI2IFYgMTguNjEgbCAwLjY1LC0wLjEzIDAuNjYsLTAuMjcgMC43OCwtMC4yNiBWIDMwLjQgbCAtMC43OCwtMC4yNiB6Ii8+JiN4YTs8L3N2Zz4=;" vertex="1" parent="1">
          <mxGeometry x="530" y="570" width="110" height="80" as="geometry" />
        </mxCell>
        <mxCell id="c7hjdYba2SUFyFxSfcjP-4" value="UK South" style="text;html=1;align=center;verticalAlign=middle;resizable=0;points=[];autosize=1;strokeColor=none;fillColor=none;" vertex="1" parent="1">
          <mxGeometry x="180" y="658" width="70" height="30" as="geometry" />
        </mxCell>
        <mxCell id="c7hjdYba2SUFyFxSfcjP-5" value="UK West" style="text;html=1;align=center;verticalAlign=middle;resizable=0;points=[];autosize=1;strokeColor=none;fillColor=none;" vertex="1" parent="1">
          <mxGeometry x="545" y="658" width="70" height="30" as="geometry" />
        </mxCell>
        <mxCell id="c7hjdYba2SUFyFxSfcjP-6" value="" style="shape=image;verticalLabelPosition=bottom;labelBackgroundColor=#ffffff;verticalAlign=top;aspect=fixed;imageAspect=0;image=data:image/svg+xml,PHN2ZyB4bWxuczpjYz0iaHR0cDovL2NyZWF0aXZlY29tbW9ucy5vcmcvbnMjIiB4bWxuczpkYz0iaHR0cDovL3B1cmwub3JnL2RjL2VsZW1lbnRzLzEuMS8iIHhtbG5zOmlua3NjYXBlPSJodHRwOi8vd3d3Lmlua3NjYXBlLm9yZy9uYW1lc3BhY2VzL2lua3NjYXBlIiB4bWxuczpyZGY9Imh0dHA6Ly93d3cudzMub3JnLzE5OTkvMDIvMjItcmRmLXN5bnRheC1ucyMiIHhtbG5zOnNvZGlwb2RpPSJodHRwOi8vc29kaXBvZGkuc291cmNlZm9yZ2UubmV0L0RURC9zb2RpcG9kaS0wLmR0ZCIgeG1sbnM6c3ZnPSJodHRwOi8vd3d3LnczLm9yZy8yMDAwL3N2ZyIgeG1sbnM9Imh0dHA6Ly93d3cudzMub3JnLzIwMDAvc3ZnIiB4bWxuczp4bGluaz0iaHR0cDovL3d3dy53My5vcmcvMTk5OS94bGluayIgdmVyc2lvbj0iMS4xIiBpZD0ic3ZnNTk4ODkiIGlua3NjYXBlOnZlcnNpb249IjAuOTIuMyAoMjQwNTU0NiwgMjAxOC0wMy0xMSkiIHNvZGlwb2RpOmRvY25hbWU9ImF6dXJlX3BvcnRhbF9hcGlfbWFuYWdlbWVudF9zZXJ2aWNlcy5zdmciIHg9IjBweCIgeT0iMHB4IiB2aWV3Qm94PSIwIDAgMzAuOTcgMjUuNDEiIHN0eWxlPSJlbmFibGUtYmFja2dyb3VuZDpuZXcgMCAwIDMwLjk3IDI1LjQxOyIgeG1sOnNwYWNlPSJwcmVzZXJ2ZSI+JiN4YTs8c29kaXBvZGk6bmFtZWR2aWV3IGJvcmRlcmNvbG9yPSIjNjY2NjY2IiBib3JkZXJvcGFjaXR5PSIxIiBmaXQtbWFyZ2luLWJvdHRvbT0iMCIgZml0LW1hcmdpbi1sZWZ0PSIwIiBmaXQtbWFyZ2luLXJpZ2h0PSIwIiBmaXQtbWFyZ2luLXRvcD0iMCIgZ3JpZHRvbGVyYW5jZT0iMTAiIGd1aWRldG9sZXJhbmNlPSIxMCIgaWQ9Im5hbWVkdmlldzU5ODkxIiBpbmtzY2FwZTpjdXJyZW50LWxheWVyPSJzdmc1OTg4OSIgaW5rc2NhcGU6Y3g9IjI5LjQ3MTgyNyIgaW5rc2NhcGU6Y3k9IjE2LjEyMDc3NSIgaW5rc2NhcGU6cGFnZW9wYWNpdHk9IjAiIGlua3NjYXBlOnBhZ2VzaGFkb3c9IjIiIGlua3NjYXBlOndpbmRvdy1oZWlnaHQ9IjEwMTciIGlua3NjYXBlOndpbmRvdy1tYXhpbWl6ZWQ9IjEiIGlua3NjYXBlOndpbmRvdy13aWR0aD0iMTkyMCIgaW5rc2NhcGU6d2luZG93LXg9Ii04IiBpbmtzY2FwZTp3aW5kb3cteT0iLTgiIGlua3NjYXBlOnpvb209IjE4LjA5MzIyNiIgb2JqZWN0dG9sZXJhbmNlPSIxMCIgcGFnZWNvbG9yPSIjZmZmZmZmIiBzaG93Z3JpZD0iZmFsc2UiPiYjeGE7CTwvc29kaXBvZGk6bmFtZWR2aWV3PiYjeGE7PGcgaWQ9Imc1OTg4NyI+JiN4YTsJPHRpdGxlIGlkPSJ0aXRsZTU5ODcyIj5QYWdlLTE8L3RpdGxlPiYjeGE7CTxnIGlkPSJncm91cDQ0MzMtMSI+JiN4YTsJCTx0aXRsZSBpZD0idGl0bGU1OTg3NCI+QXp1cmUgUG9ydGFsIC0gQVBJIE1hbmFnZW1lbnQgU2VydmljZXM8L3RpdGxlPiYjeGE7CQk8ZyBpZD0ic2hhcGU0NDM0LTIiPiYjeGE7CQkJPHRpdGxlIGlkPSJ0aXRsZTU5ODc2Ij5BUEkgTWFuYWdlbWVudDwvdGl0bGU+JiN4YTsJCQk8cGF0aCBpZD0icGF0aDU5ODc4IiBpbmtzY2FwZTpjb25uZWN0b3ItY3VydmF0dXJlPSIwIiBzdHlsZT0iZmlsbDojNTlCNEQ5OyIgZD0iTTI3LjExLDEwLjY1YzAuMS0wLjM5LDAuMS0wLjU4LDAuMS0xLjE1ICAgICBjMC01LjM4LTQuNDQtOS41LTkuODUtOS41Yy0zLjg1LDAtNy40MywyLjAxLTguODcsNS41N2MtMC40OSwwLTAuODYtMC4yLTEuNDUtMC4yYy0zLjg2LDAtNy4wNCwzLjA3LTcuMDQsNyAgICAgYzAsMy44NCwzLjE4LDYuOSw3LjA0LDYuOWgzLjU4YzAuMDksMC40OSwwLjM3LDAuOTgsMC44NiwxLjM1YzEuMjYsMS4zNSwzLjM4LDEuMjUsNC42MywwczEuMjUtMy4zNiwwLTQuNiAgICAgYy0xLjI1LTEuMzQtMy4zNy0xLjM0LTQuNjMsMGMtMC4yOSwwLjI4LTAuNDksMC44Ny0wLjY3LDEuMjRsLTMuNjcsMC4xYy0yLjcsMC00LjkyLTIuMi00LjkyLTQuOTljMC0yLjc4LDIuMTItNC45OCw0LjkyLTQuOTggICAgIGMwLjQ5LDAsMS4wNiwwLjA5LDEuNjUsMC4xOWwxLjA0LDAuMjlsMC4zLTEuMDVjMS4wNi0zLjE3LDMuOTUtNS4yOCw3LjQzLTUuMjhjNC4yNCwwLDcuNzEsMy40NSw3LjcxLDcuNjcgICAgIGMwLDAuNjgtMC4wOSwxLjM0LTAuMjgsMi4wMWwtMC4zOSwxLjU0bDEuNjMtMC4xOWgwLjNjMS4yNSwwLDIuMjIsMS4wNSwyLjIyLDIuMmMwLDEuMTYtMC44NywyLjAyLTEuOTMsMi4yMWgtNS41ICAgICBjLTAuMi0xLjU0LTAuOTctMi44Ny0yLjAzLTMuOTNjLTEuMzQtMS4zNC0zLjE4LTIuMTEtNS4xMS0yLjExYy0xLjM0LDAtMi43LDAuMzgtMy43NiwxLjA2bDEuMTYsMS44MiAgICAgYzAuODctMC40OSwxLjczLTAuNjgsMi43LTAuNjhjMS4zNSwwLDIuNywwLjQ4LDMuNTcsMS41NGMwLjk2LDAuOTYsMS41NCwyLjIxLDEuNTQsMy41NGMwLDEuMzUtMC40OCwyLjY5LTEuNTQsMy41NSAgICAgYy0wLjk2LDEuMDYtMi4yMiwxLjU0LTMuNTcsMS41NGMtMC45NywwLTEuOTMtMC4yOS0yLjctMC44N2wtMS4xNiwxLjgzYzEuMTYsMC42NywyLjUsMS4xNCwzLjc2LDEuMTRjMS45MywwLDMuNzctMC42Niw1LjExLTIuMSAgICAgYzEuMTYtMS4xNSwxLjgzLTIuNTksMi4wMy00LjIyYzAuMjksMCw1LjYtMC4wOSw1LjYtMC4wOWgwLjA5YzIuMjMtMC4yLDMuOTYtMi4xMSwzLjk2LTQuNDIgICAgIEMzMC41OCwxMi43NiwyOS4xNCwxMS4wNCwyNy4xMSwxMC42NXoiLz4mI3hhOwkJPC9nPiYjeGE7CQk8ZyBpZD0ic2hhcGU0NDM1LTQiIHRyYW5zZm9ybT0idHJhbnNsYXRlKDEwLjI5ODMsLTMuNTYwNikiPiYjeGE7CQkJPHRpdGxlIGlkPSJ0aXRsZTU5ODgxIj5TaGVldC40NDM1PC90aXRsZT4mI3hhOwkJCTxwYXRoIGlkPSJwYXRoNTk4ODMiIGlua3NjYXBlOmNvbm5lY3Rvci1jdXJ2YXR1cmU9IjAiIHN0eWxlPSJmaWxsOiM2ODIxN0E7IiBkPSJNMCwyMS45NmMwLTEuOTEsMS41NS0zLjQ2LDMuNDUtMy40NiAgICAgYzEuOTMsMCwzLjQ2LDEuNTUsMy40NiwzLjQ2YzAsMS45Mi0xLjUzLDMuNDUtMy40NiwzLjQ1QzEuNTUsMjUuNDEsMCwyMy44OCwwLDIxLjk2eiIvPiYjeGE7CQk8L2c+JiN4YTsJPC9nPiYjeGE7PC9nPiYjeGE7PC9zdmc+;" vertex="1" parent="1">
          <mxGeometry x="340" y="290" width="86.8" height="70" as="geometry" />
        </mxCell>
        <mxCell id="c7hjdYba2SUFyFxSfcjP-7" value="Geo Redundant API Manager" style="text;html=1;align=center;verticalAlign=middle;resizable=0;points=[];autosize=1;strokeColor=none;fillColor=none;" vertex="1" parent="1">
          <mxGeometry x="293.4" y="360" width="180" height="30" as="geometry" />
        </mxCell>
        <mxCell id="c7hjdYba2SUFyFxSfcjP-8" value="" style="shape=image;verticalLabelPosition=bottom;labelBackgroundColor=#ffffff;verticalAlign=top;aspect=fixed;imageAspect=0;image=data:image/svg+xml,PHN2ZyB4bWxuczpjYz0iaHR0cDovL2NyZWF0aXZlY29tbW9ucy5vcmcvbnMjIiB4bWxuczpkYz0iaHR0cDovL3B1cmwub3JnL2RjL2VsZW1lbnRzLzEuMS8iIHhtbG5zOmlua3NjYXBlPSJodHRwOi8vd3d3Lmlua3NjYXBlLm9yZy9uYW1lc3BhY2VzL2lua3NjYXBlIiB4bWxuczpyZGY9Imh0dHA6Ly93d3cudzMub3JnLzE5OTkvMDIvMjItcmRmLXN5bnRheC1ucyMiIHhtbG5zOnNvZGlwb2RpPSJodHRwOi8vc29kaXBvZGkuc291cmNlZm9yZ2UubmV0L0RURC9zb2RpcG9kaS0wLmR0ZCIgeG1sbnM6c3ZnPSJodHRwOi8vd3d3LnczLm9yZy8yMDAwL3N2ZyIgeG1sbnM9Imh0dHA6Ly93d3cudzMub3JnLzIwMDAvc3ZnIiB4bWxuczp4bGluaz0iaHR0cDovL3d3dy53My5vcmcvMTk5OS94bGluayIgdmVyc2lvbj0iMS4xIiBpZD0ic3ZnMTAwNzM2IiBpbmtzY2FwZTp2ZXJzaW9uPSIwLjkyLjMgKDI0MDU1NDYsIDIwMTgtMDMtMTEpIiBzb2RpcG9kaTpkb2NuYW1lPSJ1c2Vycy5zdmciIHg9IjBweCIgeT0iMHB4IiB2aWV3Qm94PSIwIDAgMTkyLjEyIDIyNC45MSIgc3R5bGU9ImVuYWJsZS1iYWNrZ3JvdW5kOm5ldyAwIDAgMTkyLjEyIDIyNC45MTsiIHhtbDpzcGFjZT0icHJlc2VydmUiPiYjeGE7PHNvZGlwb2RpOm5hbWVkdmlldyBib3JkZXJjb2xvcj0iIzY2NjY2NiIgYm9yZGVyb3BhY2l0eT0iMSIgZml0LW1hcmdpbi1ib3R0b209IjAiIGZpdC1tYXJnaW4tbGVmdD0iMCIgZml0LW1hcmdpbi1yaWdodD0iMCIgZml0LW1hcmdpbi10b3A9IjAiIGdyaWR0b2xlcmFuY2U9IjEwIiBndWlkZXRvbGVyYW5jZT0iMTAiIGlkPSJuYW1lZHZpZXcxMDA3MzgiIGlua3NjYXBlOmN1cnJlbnQtbGF5ZXI9InN2ZzEwMDczNiIgaW5rc2NhcGU6Y3g9IjIwMS40NDcwNiIgaW5rc2NhcGU6Y3k9IjczLjk2NDI1MyIgaW5rc2NhcGU6cGFnZW9wYWNpdHk9IjAiIGlua3NjYXBlOnBhZ2VzaGFkb3c9IjIiIGlua3NjYXBlOndpbmRvdy1oZWlnaHQ9IjEwMTciIGlua3NjYXBlOndpbmRvdy1tYXhpbWl6ZWQ9IjEiIGlua3NjYXBlOndpbmRvdy13aWR0aD0iMTkyMCIgaW5rc2NhcGU6d2luZG93LXg9Ii04IiBpbmtzY2FwZTp3aW5kb3cteT0iLTgiIGlua3NjYXBlOnpvb209IjEuNDQ1NTY5IiBvYmplY3R0b2xlcmFuY2U9IjEwIiBwYWdlY29sb3I9IiNmZmZmZmYiIHNob3dncmlkPSJmYWxzZSI+JiN4YTsJPC9zb2RpcG9kaTpuYW1lZHZpZXc+JiN4YTs8ZyBpZD0iZzEwMDczNCIgdHJhbnNmb3JtPSJ0cmFuc2xhdGUoLTQuOTkwNTY4MWUtNywwLjAwNDQ1NzEzKSI+JiN4YTsJPHRpdGxlIGlkPSJ0aXRsZTEwMDU4NCI+UGFnZS0xPC90aXRsZT4mI3hhOwk8ZyBpZD0iZ3JvdXA1NTkzLTEiIHRyYW5zZm9ybT0idHJhbnNsYXRlKDAuMTQ5OTk5LC0wLjE0OTk5OSkiPiYjeGE7CQk8dGl0bGUgaWQ9InRpdGxlMTAwNTg2Ij5Vc2VyczwvdGl0bGU+JiN4YTsJCTxnIGlkPSJzaGFwZTU1OTQtMiIgdHJhbnNmb3JtPSJ0cmFuc2xhdGUoMjguNDk5MiwtMTM2LjY4MSkiPiYjeGE7CQkJPHRpdGxlIGlkPSJ0aXRsZTEwMDU4OCI+U2hlZXQuNTU5NDwvdGl0bGU+JiN4YTsJCQk8cGF0aCBpZD0icGF0aDEwMDU5MCIgaW5rc2NhcGU6Y29ubmVjdG9yLWN1cnZhdHVyZT0iMCIgc3R5bGU9ImZpbGw6IzZENDgyOTsiIGQ9Ik0wLDIyNC45MXYtMjguNDRoNDcuMzR2MjguNDRIMHoiLz4mI3hhOwkJPC9nPiYjeGE7CQk8ZyBpZD0ic2hhcGU1NTk1LTQiIHRyYW5zZm9ybT0idHJhbnNsYXRlKDAuMTE5OTk3LC0zMC42MDAyKSI+JiN4YTsJCQk8dGl0bGUgaWQ9InRpdGxlMTAwNTkzIj5TaGVldC41NTk1PC90aXRsZT4mI3hhOwkJCTxwYXRoIGlkPSJwYXRoMTAwNTk1IiBpbmtzY2FwZTpjb25uZWN0b3ItY3VydmF0dXJlPSIwIiBzdHlsZT0iZmlsbDojNDBDNUFGOyIgZD0iTTIyLjAyLDExMC4zMWg2MC4yNCAgICAgYzEyLjEyLDAsMjIuMDIsMTAuOCwyMi4wMiwyMy41MnYxOS42Mkg4Mi4zMnY3MS40NkgyMi4wOHYtNzEuNDZIMHYtMTkuNTZsMCwwYzAtMTIuNzgsOS45LTIzLjUyLDIyLjAyLTIzLjUyVjExMC4zMXoiLz4mI3hhOwkJPC9nPiYjeGE7CQk8ZyBpZD0ic2hhcGU1NTk2LTYiIHRyYW5zZm9ybT0idHJhbnNsYXRlKDg3LjE3NzYsLTQzLjA4MDMpIj4mI3hhOwkJCTx0aXRsZSBpZD0idGl0bGUxMDA1OTgiPlNoZWV0LjU1OTY8L3RpdGxlPiYjeGE7CQkJPHBhdGggaWQ9InBhdGgxMDA2MDAiIGlua3NjYXBlOmNvbm5lY3Rvci1jdXJ2YXR1cmU9IjAiIHN0eWxlPSJmaWxsOiNFMEJCOEQ7IiBkPSJNMTQuODIsMjI0Ljg1aDI0LjY2di0xOC44NEgxNy4yMnYtNDAuMDhIMCAgICAgdjQ0LjE2bDAsMGMwLjA2LDguMTYsNi42NiwxNC43NiwxNC44MiwxNC44MlYyMjQuODV6Ii8+JiN4YTsJCTwvZz4mI3hhOwkJPGcgaWQ9InNoYXBlNTU5Ny04Ij4mI3hhOwkJCTx0aXRsZSBpZD0idGl0bGUxMDA2MDMiPlNoZWV0LjU1OTc8L3RpdGxlPiYjeGE7CQkJPHBhdGggaWQ9InBhdGgxMDA2MDUiIGlua3NjYXBlOmNvbm5lY3Rvci1jdXJ2YXR1cmU9IjAiIHN0eWxlPSJmaWxsOiNFMEJCOEQ7IiBkPSJNMCwxMjIuODVoMTcuMjJ2MTAyLjA2SDBWMTIyLjg1eiIvPiYjeGE7CQk8L2c+JiN4YTsJCTxnIGlkPSJzaGFwZTU1OTgtMTAiPiYjeGE7CQkJPHRpdGxlIGlkPSJ0aXRsZTEwMDYwOCI+U2hlZXQuNTU5ODwvdGl0bGU+JiN4YTsJCQkmI3hhOwkJCQk8cGF0aCBpZD0icGF0aDEwMDYxMCIgaW5rc2NhcGU6Y29ubmVjdG9yLWN1cnZhdHVyZT0iMCIgc3R5bGU9ImZpbGw6bm9uZTtzdHJva2U6I0ZGRkZGRjtzdHJva2Utd2lkdGg6MC4zO3N0cm9rZS1saW5lY2FwOnJvdW5kO3N0cm9rZS1saW5lam9pbjpyb3VuZDtzdHJva2UtbWl0ZXJsaW1pdDozOyIgZD0iICAgICBNMCwxMjIuODVoMTcuMjJ2MTAyLjA2SDBWMTIyLjg1eiIvPiYjeGE7CQk8L2c+JiN4YTsJCTxnIGlkPSJzaGFwZTU1OTktMTIiIHRyYW5zZm9ybT0idHJhbnNsYXRlKDExMi40OTcsLTY4LjQwMDUpIj4mI3hhOwkJCTx0aXRsZSBpZD0idGl0bGUxMDA2MTMiPlNoZWV0LjU1OTk8L3RpdGxlPiYjeGE7CQkJPHBhdGggaWQ9InBhdGgxMDA2MTUiIGlua3NjYXBlOmNvbm5lY3Rvci1jdXJ2YXR1cmU9IjAiIHN0eWxlPSJmaWxsOiMzRjU3NjU7IiBkPSJNNzkuMzIsMTg2LjUxbC0yMC44OCwzOC40SDBsMjAuNTgtMzguNCAgICAgTDc5LjMyLDE4Ni41MXoiLz4mI3hhOwkJPC9nPiYjeGE7CQk8ZyBpZD0ic2hhcGU1NjAwLTE0IiB0cmFuc2Zvcm09InRyYW5zbGF0ZSgxMTIuNDk3LC02OC40MDA1KSI+JiN4YTsJCQk8dGl0bGUgaWQ9InRpdGxlMTAwNjE4Ij5TaGVldC41NjAwPC90aXRsZT4mI3hhOwkJCSYjeGE7CQkJCTxwYXRoIGlkPSJwYXRoMTAwNjIwIiBpbmtzY2FwZTpjb25uZWN0b3ItY3VydmF0dXJlPSIwIiBzdHlsZT0iZmlsbDpub25lO3N0cm9rZTojRkZGRkZGO3N0cm9rZS13aWR0aDowLjM7c3Ryb2tlLWxpbmVjYXA6cm91bmQ7c3Ryb2tlLWxpbmVqb2luOnJvdW5kO3N0cm9rZS1taXRlcmxpbWl0OjM7IiBkPSIgICAgIE03OS4zMiwxODYuNTFsLTIwLjg4LDM4LjRIMGwyMC41OC0zOC40TDc5LjMyLDE4Ni41MXoiLz4mI3hhOwkJPC9nPiYjeGE7CQk8ZyBpZD0ic2hhcGU1NjAxLTE2IiB0cmFuc2Zvcm09InRyYW5zbGF0ZSgwLC05Ny4wMjA4KSI+JiN4YTsJCQk8dGl0bGUgaWQ9InRpdGxlMTAwNjIzIj5TaGVldC41NjAxPC90aXRsZT4mI3hhOwkJCTxwYXRoIGlkPSJwYXRoMTAwNjI1IiBpbmtzY2FwZTpjb25uZWN0b3ItY3VydmF0dXJlPSIwIiBzdHlsZT0iZmlsbDojQzM5ODZGOyIgZD0iTTE3LjIyLDIyNC45MXYtNS4wNEgwdjUuMDRIMTcuMjJ6Ii8+JiN4YTsJCTwvZz4mI3hhOwkJPGcgaWQ9InNoYXBlNTYwMi0xOCIgdHJhbnNmb3JtPSJ0cmFuc2xhdGUoMCwtOTcuMDIwOCkiPiYjeGE7CQkJPHRpdGxlIGlkPSJ0aXRsZTEwMDYyOCI+U2hlZXQuNTYwMjwvdGl0bGU+JiN4YTsJCQkmI3hhOwkJCQk8cGF0aCBpZD0icGF0aDEwMDYzMCIgaW5rc2NhcGU6Y29ubmVjdG9yLWN1cnZhdHVyZT0iMCIgc3R5bGU9ImZpbGw6bm9uZTtzdHJva2U6I0ZGRkZGRjtzdHJva2Utd2lkdGg6MC4zO3N0cm9rZS1saW5lY2FwOnJvdW5kO3N0cm9rZS1saW5lam9pbjpyb3VuZDtzdHJva2UtbWl0ZXJsaW1pdDozOyIgZD0iICAgICBNMTcuMjIsMjI0Ljkxdi01LjA0SDB2NS4wNEgxNy4yMnoiLz4mI3hhOwkJPC9nPiYjeGE7CQk8ZyBpZD0ic2hhcGU1NjAzLTIwIiB0cmFuc2Zvcm09InRyYW5zbGF0ZSg4Ny4xNzc2LC05Ny4wMjA4KSI+JiN4YTsJCQk8dGl0bGUgaWQ9InRpdGxlMTAwNjMzIj5TaGVldC41NjAzPC90aXRsZT4mI3hhOwkJCTxwYXRoIGlkPSJwYXRoMTAwNjM1IiBpbmtzY2FwZTpjb25uZWN0b3ItY3VydmF0dXJlPSIwIiBzdHlsZT0iZmlsbDojQzM5ODZGOyIgZD0iTTE3LjIyLDIyNC45MXYtNS4wNEgwdjUuMDRIMTcuMjJ6Ii8+JiN4YTsJCTwvZz4mI3hhOwkJPGcgaWQ9InNoYXBlNTYwNC0yMiIgdHJhbnNmb3JtPSJ0cmFuc2xhdGUoODcuMTc3NiwtOTcuMDIwOCkiPiYjeGE7CQkJPHRpdGxlIGlkPSJ0aXRsZTEwMDYzOCI+U2hlZXQuNTYwNDwvdGl0bGU+JiN4YTsJCQkmI3hhOwkJCQk8cGF0aCBpZD0icGF0aDEwMDY0MCIgaW5rc2NhcGU6Y29ubmVjdG9yLWN1cnZhdHVyZT0iMCIgc3R5bGU9ImZpbGw6bm9uZTtzdHJva2U6I0ZGRkZGRjtzdHJva2Utd2lkdGg6MC4zO3N0cm9rZS1saW5lY2FwOnJvdW5kO3N0cm9rZS1saW5lam9pbjpyb3VuZDtzdHJva2UtbWl0ZXJsaW1pdDozOyIgZD0iICAgICBNMTcuMjIsMjI0Ljkxdi01LjA0SDB2NS4wNEgxNy4yMnoiLz4mI3hhOwkJPC9nPiYjeGE7CQk8ZyBpZD0ic2hhcGU1NjA1LTI0IiB0cmFuc2Zvcm09InRyYW5zbGF0ZSg0MS44Nzg5LC0xMzcuNTgxKSI+JiN4YTsJCQk8dGl0bGUgaWQ9InRpdGxlMTAwNjQzIj5TaGVldC41NjA1PC90aXRsZT4mI3hhOwkJCTxwYXRoIGlkPSJwYXRoMTAwNjQ1IiBpbmtzY2FwZTpjb25uZWN0b3ItY3VydmF0dXJlPSIwIiBzdHlsZT0iZmlsbDojRTFCQzhGOyIgZD0iTTAsMTkxLjQzaDIwLjI4djI3Ljg0bC0xMC4zMiw1LjY0TDAsMjE5LjI3ICAgICBWMTkxLjQzeiIvPiYjeGE7CQk8L2c+JiN4YTsJCTxnIGlkPSJzaGFwZTU2MDYtMjYiIHRyYW5zZm9ybT0idHJhbnNsYXRlKDIzLjM5OTQsLTE4MC40MjEpIj4mI3hhOwkJCTx0aXRsZSBpZD0idGl0bGUxMDA2NDgiPlNoZWV0LjU2MDY8L3RpdGxlPiYjeGE7CQkJPHBhdGggaWQ9InBhdGgxMDA2NTAiIGlua3NjYXBlOmNvbm5lY3Rvci1jdXJ2YXR1cmU9IjAiIHN0eWxlPSJmaWxsOiNDNDk5NzA7IiBkPSJNNTcuNzIsMjIxLjc5YzAsMS42Mi0xLjIsMy0yLjgyLDMuMTJIMi44OCAgICAgYy0xLjYyLTAuMTItMi44OC0xLjUtMi44OC0zLjEydi02LjI0YzAtMS41NiwxLjMyLTIuODIsMi44OC0yLjgySDU0LjljMS41NiwwLDIuODIsMS4yNiwyLjgyLDIuODJWMjIxLjc5eiIvPiYjeGE7CQk8L2c+JiN4YTsJCTxnIGlkPSJzaGFwZTU2MDctMjgiIHRyYW5zZm9ybT0idHJhbnNsYXRlKDQyLjExODksLTEzNy41ODEpIj4mI3hhOwkJCTx0aXRsZSBpZD0idGl0bGUxMDA2NTMiPlNoZWV0LjU2MDc8L3RpdGxlPiYjeGE7CQkJJiN4YTsJCQkJPHBhdGggaWQ9InBhdGgxMDA2NTUiIGlua3NjYXBlOmNvbm5lY3Rvci1jdXJ2YXR1cmU9IjAiIHN0eWxlPSJmaWxsOm5vbmU7c3Ryb2tlOiNGRkZGRkY7c3Ryb2tlLXdpZHRoOjAuNDg7c3Ryb2tlLWxpbmVjYXA6cm91bmQ7c3Ryb2tlLWxpbmVqb2luOnJvdW5kO3N0cm9rZS1taXRlcmxpbWl0OjM7IiBkPSIgICAgIE0wLDE5MS40M2gyMC4yOHYyNy44NGwtMTAuMjYsNS42NEwwLDIxOS4yN1YxOTEuNDN6Ii8+JiN4YTsJCTwvZz4mI3hhOwkJPGcgaWQ9InNoYXBlNTYwOC0zMCIgdHJhbnNmb3JtPSJ0cmFuc2xhdGUoNDIuMTE4OSwtMTUzLjU0MSkiPiYjeGE7CQkJPHRpdGxlIGlkPSJ0aXRsZTEwMDY1OCI+U2hlZXQuNTYwODwvdGl0bGU+JiN4YTsJCQk8cGF0aCBpZD0icGF0aDEwMDY2MCIgaW5rc2NhcGU6Y29ubmVjdG9yLWN1cnZhdHVyZT0iMCIgc3R5bGU9ImZpbGw6I0M0OTk3MDsiIGQ9Ik0wLDIyMy43MWMzLjMsMC45LDYuNjYsMS4zMiwxMC4wMiwxLjIgICAgIGMzLjQ4LDAuMDYsNi45LTAuMzYsMTAuMjYtMS4ydi0xNi4zMkgwVjIyMy43MXoiLz4mI3hhOwkJPC9nPiYjeGE7CQk8ZyBpZD0ic2hhcGU1NjA5LTMyIiB0cmFuc2Zvcm09InRyYW5zbGF0ZSgyOC43MzkyLC0xNTcuMzIxKSI+JiN4YTsJCQk8dGl0bGUgaWQ9InRpdGxlMTAwNjYzIj5TaGVldC41NjA5PC90aXRsZT4mI3hhOwkJCTxwYXRoIGlkPSJwYXRoMTAwNjY1IiBpbmtzY2FwZTpjb25uZWN0b3ItY3VydmF0dXJlPSIwIiBzdHlsZT0iZmlsbDojRTFCQzhGOyIgZD0iTTAsMTc5Ljk3djM3LjE0YzYuNzgsNC45OCwxNC45NCw3LjY4LDIzLjQsNy44ICAgICBjOC41OC0wLjEyLDE2Ljk4LTIuODIsMjQtNy44di0zNy4xNEgweiIvPiYjeGE7CQk8L2c+JiN4YTsJCTxnIGlkPSJzaGFwZTU2MTAtMzQiIHRyYW5zZm9ybT0idHJhbnNsYXRlKDI4LjQzOTIsLTE4OS4xMjEpIj4mI3hhOwkJCTx0aXRsZSBpZD0idGl0bGUxMDA2NjgiPlNoZWV0LjU2MTA8L3RpdGxlPiYjeGE7CQkJPHBhdGggaWQ9InBhdGgxMDA2NzAiIGlua3NjYXBlOmNvbm5lY3Rvci1jdXJ2YXR1cmU9IjAiIHN0eWxlPSJmaWxsOiM2RDQ4Mjk7IiBkPSJNMzMuNjYsMTkxLjQ5Yy0zLTEuNS02LjMtMi4yOC05LjY2LTIuMjIgICAgIGMtMTMuMi0wLjEyLTI0LDEwLjU2LTI0LDIzLjc2djExLjg4QzE3Ljc2LDIyMi42OSwzMS44LDIwOC45NSwzMy42NiwxOTEuNDl6Ii8+JiN4YTsJCTwvZz4mI3hhOwkJPGcgaWQ9InNoYXBlNTYxMS0zNiIgdHJhbnNmb3JtPSJ0cmFuc2xhdGUoNDIuNDc4OSwtMTg5LjEyMSkiPiYjeGE7CQkJPHRpdGxlIGlkPSJ0aXRsZTEwMDY3MyI+U2hlZXQuNTYxMTwvdGl0bGU+JiN4YTsJCQk8cGF0aCBpZD0icGF0aDEwMDY3NSIgaW5rc2NhcGU6Y29ubmVjdG9yLWN1cnZhdHVyZT0iMCIgc3R5bGU9ImZpbGw6IzZENDgyOTsiIGQ9Ik0wLDE5MS40OWMzLjA2LTEuNTYsNi40OC0yLjI4LDkuOTYtMi4yMiAgICAgYzEzLjA4LDAsMjMuNywxMC42MiwyMy43LDIzLjc2djExLjg4QzE2LjE0LDIyMi43NSwyLjI4LDIwOS4wMSwwLDE5MS40OXoiLz4mI3hhOwkJPC9nPiYjeGE7CQk8ZyBpZD0ic2hhcGU1NjEyLTM4IiB0cmFuc2Zvcm09InRyYW5zbGF0ZSg0Mi4xMTg5LC0xNjYuMDgxKSI+JiN4YTsJCQk8dGl0bGUgaWQ9InRpdGxlMTAwNjc4Ij5TaGVldC41NjEyPC90aXRsZT4mI3hhOwkJCTxwYXRoIGlkPSJwYXRoMTAwNjgwIiBpbmtzY2FwZTpjb25uZWN0b3ItY3VydmF0dXJlPSIwIiBzdHlsZT0iZmlsbDojRkZGRkZGOyIgZD0iTTAsMjE5LjkzYzIuNDYsMy4yNCw2LjMsNS4xLDEwLjMyLDQuOTggICAgIGMzLjk2LDAuMDYsNy42OC0xLjgsMTAuMDItNC45OEgweiIvPiYjeGE7CQk8L2c+JiN4YTsJCTxnIGlkPSJzaGFwZTU2MTMtNDAiIHRyYW5zZm9ybT0idHJhbnNsYXRlKDQ5LjAxODcsLTE3NS4zODEpIj4mI3hhOwkJCTx0aXRsZSBpZD0idGl0bGUxMDA2ODMiPlNoZWV0LjU2MTM8L3RpdGxlPiYjeGE7CQkJPHBhdGggaWQ9InBhdGgxMDA2ODUiIGlua3NjYXBlOmNvbm5lY3Rvci1jdXJ2YXR1cmU9IjAiIHN0eWxlPSJmaWxsOiNDNDk5NzA7IiBkPSJNMCwyMjMuMzVjMC44NCwwLjk2LDIuMSwxLjU2LDMuNDIsMS41NiAgICAgYzEuMjYsMCwyLjQtMC42LDMuMTItMS41NkgweiIvPiYjeGE7CQk8L2c+JiN4YTsJCTxnIGlkPSJzaGFwZTU2MTQtNDIiIHRyYW5zZm9ybT0idHJhbnNsYXRlKDM5LjU4MzksLTE4NS4xMDEpIj4mI3hhOwkJCTx0aXRsZSBpZD0idGl0bGUxMDA2ODgiPlNoZWV0LjU2MTQ8L3RpdGxlPiYjeGE7CQkJPHBhdGggaWQ9InBhdGgxMDA2OTAiIGlua3NjYXBlOmNvbm5lY3Rvci1jdXJ2YXR1cmU9IjAiIHN0eWxlPSJmaWxsOiMzMzMzMzM7IiBkPSJNMy40MywyMjMuMzVjLTAuMDYsMC45Ni0wLjksMS42Mi0xLjg2LDEuNTYgICAgIGMtMi4wOSwwLTIuMDktMy4xMiwwLTMuMTJDMi41MywyMjEuNzMsMy4zNywyMjIuMzksMy40MywyMjMuMzV6Ii8+JiN4YTsJCTwvZz4mI3hhOwkJPGcgaWQ9InNoYXBlNTYxNS00NCIgdHJhbnNmb3JtPSJ0cmFuc2xhdGUoNjEuNzgzMywtMTg1LjEwMSkiPiYjeGE7CQkJPHRpdGxlIGlkPSJ0aXRsZTEwMDY5MyI+U2hlZXQuNTYxNTwvdGl0bGU+JiN4YTsJCQk8cGF0aCBpZD0icGF0aDEwMDY5NSIgaW5rc2NhcGU6Y29ubmVjdG9yLWN1cnZhdHVyZT0iMCIgc3R5bGU9ImZpbGw6IzMzMzMzMzsiIGQ9Ik0zLjQzLDIyMy4zNWMtMC4xMiwwLjk2LTAuOTYsMS42Mi0xLjg2LDEuNTYgICAgIGMtMi4wOSwwLTIuMDktMy4xMiwwLTMuMTJDMi40NywyMjEuNzMsMy4zMSwyMjIuMzksMy40MywyMjMuMzV6Ii8+JiN4YTsJCTwvZz4mI3hhOwkJPGcgaWQ9InNoYXBlNTYxNi00NiIgdHJhbnNmb3JtPSJ0cmFuc2xhdGUoNDYuNDk4NywtODYuNzYwNykiPiYjeGE7CQkJPHRpdGxlIGlkPSJ0aXRsZTEwMDY5OCI+U2hlZXQuNTYxNjwvdGl0bGU+JiN4YTsJCQk8cGF0aCBpZD0icGF0aDEwMDcwMCIgaW5rc2NhcGU6Y29ubmVjdG9yLWN1cnZhdHVyZT0iMCIgc3R5bGU9ImZpbGw6I0ZGRkZGRjsiIGQ9Ik0wLDIwNS45NWgxMS41MnYxOC45NkgwVjIwNS45NXoiLz4mI3hhOwkJPC9nPiYjeGE7CQk8ZyBpZD0ic2hhcGU1NjE3LTQ4IiB0cmFuc2Zvcm09InRyYW5zbGF0ZSg0My4xMzg4LC0xMDUuMzYxKSI+JiN4YTsJCQk8dGl0bGUgaWQ9InRpdGxlMTAwNzAzIj5TaGVldC41NjE3PC90aXRsZT4mI3hhOwkJCSYjeGE7CQkJCTxwYXRoIGlkPSJwYXRoMTAwNzA1IiBpbmtzY2FwZTpjb25uZWN0b3ItY3VydmF0dXJlPSIwIiBzdHlsZT0iZmlsbDpub25lO3N0cm9rZTojRkZGRkZGO3N0cm9rZS13aWR0aDowLjc4O3N0cm9rZS1saW5lY2FwOnJvdW5kO3N0cm9rZS1saW5lam9pbjpyb3VuZDtzdHJva2UtbWl0ZXJsaW1pdDozOyIgZD0iICAgICBNMy45LDIyNC45MUwwLDE4Ny41OSIvPiYjeGE7CQk8L2c+JiN4YTsJCTxnIGlkPSJzaGFwZTU2MTgtNTEiIHRyYW5zZm9ybT0idHJhbnNsYXRlKDU3LjUzODQsLTEwNS40ODEpIj4mI3hhOwkJCTx0aXRsZSBpZD0idGl0bGUxMDA3MDgiPlNoZWV0LjU2MTg8L3RpdGxlPiYjeGE7CQkJJiN4YTsJCQkJPHBhdGggaWQ9InBhdGgxMDA3MTAiIGlua3NjYXBlOmNvbm5lY3Rvci1jdXJ2YXR1cmU9IjAiIHN0eWxlPSJmaWxsOm5vbmU7c3Ryb2tlOiNGRkZGRkY7c3Ryb2tlLXdpZHRoOjAuNzg7c3Ryb2tlLWxpbmVjYXA6cm91bmQ7c3Ryb2tlLWxpbmVqb2luOnJvdW5kO3N0cm9rZS1taXRlcmxpbWl0OjM7IiBkPSIgICAgIE0wLDIyNC45MWwzLjg0LTM3LjIiLz4mI3hhOwkJPC9nPiYjeGE7CQk8ZyBpZD0ic2hhcGU1NjE5LTU0IiB0cmFuc2Zvcm09InRyYW5zbGF0ZSg0OC42NTg3LC05Ni40ODA3KSI+JiN4YTsJCQk8dGl0bGUgaWQ9InRpdGxlMTAwNzEzIj5TaGVldC41NjE5PC90aXRsZT4mI3hhOwkJCTxwYXRoIGlkPSJwYXRoMTAwNzE1IiBpbmtzY2FwZTpjb25uZWN0b3ItY3VydmF0dXJlPSIwIiBzdHlsZT0iZmlsbDojRjA1MTI1OyIgZD0iTTAsMjIxLjQ5aDMuNDJ2My40MkgwVjIyMS40OXoiLz4mI3hhOwkJPC9nPiYjeGE7CQk8ZyBpZD0ic2hhcGU1NjIwLTU2IiB0cmFuc2Zvcm09InRyYW5zbGF0ZSg1Mi40OTg2LC05Ni40ODA3KSI+JiN4YTsJCQk8dGl0bGUgaWQ9InRpdGxlMTAwNzE4Ij5TaGVldC41NjIwPC90aXRsZT4mI3hhOwkJCTxwYXRoIGlkPSJwYXRoMTAwNzIwIiBpbmtzY2FwZTpjb25uZWN0b3ItY3VydmF0dXJlPSIwIiBzdHlsZT0iZmlsbDojN0ZCQjQyOyIgZD0iTTAsMjIxLjQ5aDMuNDJ2My40MkgwVjIyMS40OXoiLz4mI3hhOwkJPC9nPiYjeGE7CQk8ZyBpZD0ic2hhcGU1NjIxLTU4IiB0cmFuc2Zvcm09InRyYW5zbGF0ZSg1Mi40OTg2LC05Mi42NDA3KSI+JiN4YTsJCQk8dGl0bGUgaWQ9InRpdGxlMTAwNzIzIj5TaGVldC41NjIxPC90aXRsZT4mI3hhOwkJCTxwYXRoIGlkPSJwYXRoMTAwNzI1IiBpbmtzY2FwZTpjb25uZWN0b3ItY3VydmF0dXJlPSIwIiBzdHlsZT0iZmlsbDojRkRCODEzOyIgZD0iTTAsMjIxLjQ5aDMuNDJ2My40MkgwVjIyMS40OXoiLz4mI3hhOwkJPC9nPiYjeGE7CQk8ZyBpZD0ic2hhcGU1NjIyLTYwIiB0cmFuc2Zvcm09InRyYW5zbGF0ZSg0OC42NTg3LC05Mi42NDA3KSI+JiN4YTsJCQk8dGl0bGUgaWQ9InRpdGxlMTAwNzI4Ij5TaGVldC41NjIyPC90aXRsZT4mI3hhOwkJCTxwYXRoIGlkPSJwYXRoMTAwNzMwIiBpbmtzY2FwZTpjb25uZWN0b3ItY3VydmF0dXJlPSIwIiBzdHlsZT0iZmlsbDojMzJBMERBOyIgZD0iTTAsMjIxLjQ5aDMuNDJ2My40MkgwVjIyMS40OXoiLz4mI3hhOwkJPC9nPiYjeGE7CTwvZz4mI3hhOzwvZz4mI3hhOzwvc3ZnPg==;" vertex="1" parent="1">
          <mxGeometry x="50" y="170" width="102" height="119.53" as="geometry" />
        </mxCell>
        <mxCell id="c7hjdYba2SUFyFxSfcjP-9" value="" style="shape=image;verticalLabelPosition=bottom;verticalAlign=top;imageAspect=0;aspect=fixed;image=data:image/svg+xml,PHN2ZyB4bWxuczpkYz0iaHR0cDovL3B1cmwub3JnL2RjL2VsZW1lbnRzLzEuMS8iIHhtbG5zOmNjPSJodHRwOi8vY3JlYXRpdmVjb21tb25zLm9yZy9ucyMiIHhtbG5zOnJkZj0iaHR0cDovL3d3dy53My5vcmcvMTk5OS8wMi8yMi1yZGYtc3ludGF4LW5zIyIgeG1sbnM6c3ZnPSJodHRwOi8vd3d3LnczLm9yZy8yMDAwL3N2ZyIgeG1sbnM9Imh0dHA6Ly93d3cudzMub3JnLzIwMDAvc3ZnIiB4bWxuczpzb2RpcG9kaT0iaHR0cDovL3NvZGlwb2RpLnNvdXJjZWZvcmdlLm5ldC9EVEQvc29kaXBvZGktMC5kdGQiIHhtbG5zOmlua3NjYXBlPSJodHRwOi8vd3d3Lmlua3NjYXBlLm9yZy9uYW1lc3BhY2VzL2lua3NjYXBlIiBjbGFzcz0iIiBpZD0iRnhTeW1ib2wwLTA4MyIgcm9sZT0icHJlc2VudGF0aW9uIiB2aWV3Qm94PSIwIDAgNTAgMzEuMjUwOTk5IiBmb2N1c2FibGU9ImZhbHNlIiB2ZXJzaW9uPSIxLjEiIHNvZGlwb2RpOmRvY25hbWU9ImFwaV9jb25uZWN0aW9ucy5zdmciIHdpZHRoPSI1MCIgaGVpZ2h0PSIzMS4yNTA5OTkiIGlua3NjYXBlOnZlcnNpb249IjAuOTIuMyAoMjQwNTU0NiwgMjAxOC0wMy0xMSkiPiYjeGE7ICA8bWV0YWRhdGEgaWQ9Im1ldGFkYXRhMTA0ODciPiYjeGE7ICAgIDxyZGY6UkRGPiYjeGE7ICAgICAgPGNjOldvcmsgcmRmOmFib3V0PSIiPiYjeGE7ICAgICAgICA8ZGM6Zm9ybWF0PmltYWdlL3N2Zyt4bWw8L2RjOmZvcm1hdD4mI3hhOyAgICAgICAgPGRjOnR5cGUgcmRmOnJlc291cmNlPSJodHRwOi8vcHVybC5vcmcvZGMvZGNtaXR5cGUvU3RpbGxJbWFnZSIvPiYjeGE7ICAgICAgICA8ZGM6dGl0bGUvPiYjeGE7ICAgICAgPC9jYzpXb3JrPiYjeGE7ICAgIDwvcmRmOlJERj4mI3hhOyAgPC9tZXRhZGF0YT4mI3hhOyAgPGRlZnMgaWQ9ImRlZnMxMDQ4NSIvPiYjeGE7ICA8c29kaXBvZGk6bmFtZWR2aWV3IHBhZ2Vjb2xvcj0iI2ZmZmZmZiIgYm9yZGVyY29sb3I9IiM2NjY2NjYiIGJvcmRlcm9wYWNpdHk9IjEiIG9iamVjdHRvbGVyYW5jZT0iMTAiIGdyaWR0b2xlcmFuY2U9IjEwIiBndWlkZXRvbGVyYW5jZT0iMTAiIGlua3NjYXBlOnBhZ2VvcGFjaXR5PSIwIiBpbmtzY2FwZTpwYWdlc2hhZG93PSIyIiBpbmtzY2FwZTp3aW5kb3ctd2lkdGg9IjE5MjAiIGlua3NjYXBlOndpbmRvdy1oZWlnaHQ9IjEwMTciIGlkPSJuYW1lZHZpZXcxMDQ4MyIgc2hvd2dyaWQ9ImZhbHNlIiBpbmtzY2FwZTp6b29tPSIxNyIgaW5rc2NhcGU6Y3g9IjI1IiBpbmtzY2FwZTpjeT0iMTUuNjI2IiBpbmtzY2FwZTp3aW5kb3cteD0iLTgiIGlua3NjYXBlOndpbmRvdy15PSItOCIgaW5rc2NhcGU6d2luZG93LW1heGltaXplZD0iMSIgaW5rc2NhcGU6Y3VycmVudC1sYXllcj0iRnhTeW1ib2wwLTA4MyIgZml0LW1hcmdpbi10b3A9IjAiIGZpdC1tYXJnaW4tbGVmdD0iMCIgZml0LW1hcmdpbi1yaWdodD0iMCIgZml0LW1hcmdpbi1ib3R0b209IjAiLz4mI3hhOyAgPGcgaWQ9ImcxMDQ4MCIgdHJhbnNmb3JtPSJ0cmFuc2xhdGUoMCwtOS4zNzUpIj4mI3hhOyAgICA8dGl0bGUgaWQ9InRpdGxlMTA0NzQiLz4mI3hhOyAgICA8cGF0aCBjbGFzcz0ibXNwb3J0YWxmeC1zdmctYzE0IiBkPSJtIDM5LjA2MywxOC43NSBjIDEuNTE0LDAgMi45MzQsMC4yODkgNC4yNiwwLjg2NyAxLjMyNiwwLjU3OCAyLjQ4MiwxLjM1OSAzLjQ2NywyLjM0NCAwLjk4NSwwLjk4NSAxLjc2NiwyLjE0IDIuMzQ0LDMuNDY3IDAuNTc4LDEuMzI3IDAuODY2LDIuNzQ2IDAuODY2LDQuMjYgMCwxLjUxNCAtMC4yODksMi45MzQgLTAuODY3LDQuMjYgLTAuNTc4LDEuMzI2IC0xLjM1OSwyLjQ4MiAtMi4zNDQsMy40NjcgLTAuOTg1LDAuOTg1IC0yLjE0LDEuNzY2IC0zLjQ2NywyLjM0NCAtMS4zMjcsMC41NzggLTIuNzQ3LDAuODY3IC00LjI2LDAuODY3IGggLTEyLjUgYyAtMS41MTQsMCAtMi45MzQsLTAuMjg5IC00LjI2LC0wLjg2NyAtMS4zMjYsLTAuNTc4IC0yLjQ4MiwtMS4zNTkgLTMuNDY3LC0yLjM0NCAtMC45ODUsLTAuOTg1IC0xLjc2NiwtMi4xNCAtMi4zNDQsLTMuNDY3IC0wLjU3OCwtMS4zMjcgLTAuODY3LC0yLjc0NyAtMC44NjcsLTQuMjYgMCwtMS41MTMgMC4yODksLTIuOTM0IDAuODY3LC00LjI2IDAuNTc4LC0xLjMyNiAxLjM1OSwtMi40ODIgMi4zNDQsLTMuNDY3IDAuOTg1LC0wLjk4NSAyLjE0LC0xLjc2NiAzLjQ2NywtMi4zNDQgMS4zMjcsLTAuNTc4IDIuNzQ3LC0wLjg2NyA0LjI2LC0wLjg2NyBoIDEuNTYzIHYgMy4xMjUgYyAtMS4yMzcsMCAtMi40MjEsMC4xNDIgLTMuNTUyLDAuNDI3IC0xLjEzMSwwLjI4NSAtMi4xMjgsMC43NDEgLTIuOTkxLDEuMzY3IC0wLjg2MywwLjYyNiAtMS41NSwxLjQzMiAtMi4wNjMsMi40MTcgLTAuNTEzLDAuOTg1IC0wLjc2OSwyLjE4NSAtMC43NjksMy42MDEgMCwxLjA3NCAwLjIwOCwyLjA4MyAwLjYyMywzLjAyNyAwLjQxNSwwLjk0NCAwLjk3NywxLjc3IDEuNjg1LDIuNDc4IDAuNzA4LDAuNzA4IDEuNTM0LDEuMjcgMi40NzgsMS42ODUgMC45NDQsMC40MTUgMS45NTMsMC42MjMgMy4wMjcsMC42MjMgaCAxMi41IGMgMS4wNzQsMCAyLjA4MywtMC4yMDggMy4wMjcsLTAuNjIzIDAuOTQ0LC0wLjQxNSAxLjc3LC0wLjk3NyAyLjQ3OCwtMS42ODUgMC43MDgsLTAuNzA4IDEuMjcsLTEuNTM0IDEuNjg1LC0yLjQ3OCAwLjQxNSwtMC45NDQgMC42MjMsLTEuOTUzIDAuNjIzLC0zLjAyNyAwLC0xLjQxNiAtMC4yNTYsLTIuNjE2IC0wLjc2OSwtMy42MDEgLTAuNTEzLC0wLjk4NSAtMS4yLC0xLjc5IC0yLjA2MywtMi40MTcgLTAuODYzLC0wLjYyNyAtMS44NiwtMS4wODIgLTIuOTkxLC0xLjM2NyAtMS4xMzEsLTAuMjg1IC0yLjMxNSwtMC40MjcgLTMuNTUyLC0wLjQyNyBWIDE4Ljc1IFoiIGlkPSJwYXRoMTA0NzYiIGlua3NjYXBlOmNvbm5lY3Rvci1jdXJ2YXR1cmU9IjAiIHN0eWxlPSJmaWxsOiM3ZmJhMDAiLz4mI3hhOyAgICA8cGF0aCBjbGFzcz0ibXNwb3J0YWxmeC1zdmctYzE1IiBkPSJtIDIxLjg3NSwzMS4yNSB2IC0zLjEyNSBjIDEuMjM3LDAgMi40MjEsLTAuMTQyIDMuNTUyLC0wLjQyNyAxLjEzMSwtMC4yODUgMi4xMjgsLTAuNzQxIDIuOTkxLC0xLjM2NyAwLjg2MywtMC42MjYgMS41NSwtMS40MzIgMi4wNjMsLTIuNDE3IDAuNTEzLC0wLjk4NSAwLjc2OSwtMi4xODUgMC43NjksLTMuNjAxIDAsLTEuMDc0IC0wLjIwOCwtMi4wODMgLTAuNjIzLC0zLjAyNyBDIDMwLjIxMiwxNi4zNDIgMjkuNjUsMTUuNTE2IDI4Ljk0MiwxNC44MDggMjguMjM0LDE0LjEgMjcuNDA4LDEzLjUzOCAyNi40NjQsMTMuMTIzIDI1LjUyLDEyLjcwOCAyNC41MTIsMTIuNSAyMy40MzgsMTIuNSBoIC0xMi41IGMgLTEuMDc0LDAgLTIuMDgzLDAuMjA4IC0zLjAyNywwLjYyMyAtMC45NDQsMC40MTUgLTEuNzcsMC45NzcgLTIuNDc4LDEuNjg1IC0wLjcwOCwwLjcwOCAtMS4yNywxLjUzNCAtMS42ODUsMi40NzggLTAuNDE1LDAuOTQ0IC0wLjYyMywxLjk1MyAtMC42MjMsMy4wMjcgMCwxLjQxNiAwLjI1NiwyLjYxNiAwLjc2OSwzLjYwMSAwLjUxMywwLjk4NSAxLjIsMS43OSAyLjA2MywyLjQxNyAwLjg2MywwLjYyNyAxLjg2LDEuMDgyIDIuOTkxLDEuMzY3IDEuMTMxLDAuMjg1IDIuMzE1LDAuNDI3IDMuNTUyLDAuNDI3IFYgMzEuMjUgSCAxMC45MzcgQyA5LjQyMywzMS4yNSA4LjAwMywzMC45NjEgNi42NzcsMzAuMzgzIDUuMzUxLDI5LjgwNSA0LjE5NSwyOS4wMjQgMy4yMSwyOC4wNCAyLjIyNSwyNy4wNTYgMS40NDQsMjUuOSAwLjg2NiwyNC41NzMgMC4yODgsMjMuMjQ2IDAsMjEuODI2IDAsMjAuMzEzIDAsMTguOCAwLjI4OSwxNy4zNzkgMC44NjcsMTYuMDUzIDEuNDQ1LDE0LjcyNyAyLjIyNiwxMy41NzEgMy4yMTEsMTIuNTg2IDQuMTk2LDExLjYwMSA1LjM1MSwxMC44MiA2LjY3OCwxMC4yNDIgOC4wMDUsOS42NjQgOS40MjUsOS4zNzUgMTAuOTM4LDkuMzc1IGggMTIuNSBjIDEuNTE0LDAgMi45MzQsMC4yODkgNC4yNiwwLjg2NyAxLjMyNiwwLjU3OCAyLjQ4MiwxLjM1OSAzLjQ2NywyLjM0NCAwLjk4NSwwLjk4NSAxLjc2NiwyLjE0IDIuMzQ0LDMuNDY3IDAuNTc4LDEuMzI3IDAuODY3LDIuNzQ3IDAuODY3LDQuMjYgMCwxLjUxMyAtMC4yODksMi45MzQgLTAuODY3LDQuMjYgLTAuNTc4LDEuMzI2IC0xLjM1OSwyLjQ4MiAtMi4zNDQsMy40NjcgLTAuOTg1LDAuOTg1IC0yLjE0LDEuNzY2IC0zLjQ2NywyLjM0NCAtMS4zMjcsMC41NzggLTIuNzQ3LDAuODY3IC00LjI2LDAuODY3IGggLTEuNTYzIHoiIGlkPSJwYXRoMTA0NzgiIGlua3NjYXBlOmNvbm5lY3Rvci1jdXJ2YXR1cmU9IjAiIHN0eWxlPSJmaWxsOiM1OWI0ZDkiLz4mI3hhOyAgPC9nPiYjeGE7PC9zdmc+;" vertex="1" parent="1">
          <mxGeometry x="240" y="440" width="80.65" height="50" as="geometry" />
        </mxCell>
        <mxCell id="c7hjdYba2SUFyFxSfcjP-10" value="" style="shape=image;verticalLabelPosition=bottom;verticalAlign=top;imageAspect=0;aspect=fixed;image=data:image/svg+xml,PHN2ZyB4bWxuczpkYz0iaHR0cDovL3B1cmwub3JnL2RjL2VsZW1lbnRzLzEuMS8iIHhtbG5zOmNjPSJodHRwOi8vY3JlYXRpdmVjb21tb25zLm9yZy9ucyMiIHhtbG5zOnJkZj0iaHR0cDovL3d3dy53My5vcmcvMTk5OS8wMi8yMi1yZGYtc3ludGF4LW5zIyIgeG1sbnM6c3ZnPSJodHRwOi8vd3d3LnczLm9yZy8yMDAwL3N2ZyIgeG1sbnM9Imh0dHA6Ly93d3cudzMub3JnLzIwMDAvc3ZnIiB4bWxuczpzb2RpcG9kaT0iaHR0cDovL3NvZGlwb2RpLnNvdXJjZWZvcmdlLm5ldC9EVEQvc29kaXBvZGktMC5kdGQiIHhtbG5zOmlua3NjYXBlPSJodHRwOi8vd3d3Lmlua3NjYXBlLm9yZy9uYW1lc3BhY2VzL2lua3NjYXBlIiBjbGFzcz0iIiBpZD0iRnhTeW1ib2wwLTA4MyIgcm9sZT0icHJlc2VudGF0aW9uIiB2aWV3Qm94PSIwIDAgNTAgMzEuMjUwOTk5IiBmb2N1c2FibGU9ImZhbHNlIiB2ZXJzaW9uPSIxLjEiIHNvZGlwb2RpOmRvY25hbWU9ImFwaV9jb25uZWN0aW9ucy5zdmciIHdpZHRoPSI1MCIgaGVpZ2h0PSIzMS4yNTA5OTkiIGlua3NjYXBlOnZlcnNpb249IjAuOTIuMyAoMjQwNTU0NiwgMjAxOC0wMy0xMSkiPiYjeGE7ICA8bWV0YWRhdGEgaWQ9Im1ldGFkYXRhMTA0ODciPiYjeGE7ICAgIDxyZGY6UkRGPiYjeGE7ICAgICAgPGNjOldvcmsgcmRmOmFib3V0PSIiPiYjeGE7ICAgICAgICA8ZGM6Zm9ybWF0PmltYWdlL3N2Zyt4bWw8L2RjOmZvcm1hdD4mI3hhOyAgICAgICAgPGRjOnR5cGUgcmRmOnJlc291cmNlPSJodHRwOi8vcHVybC5vcmcvZGMvZGNtaXR5cGUvU3RpbGxJbWFnZSIvPiYjeGE7ICAgICAgICA8ZGM6dGl0bGUvPiYjeGE7ICAgICAgPC9jYzpXb3JrPiYjeGE7ICAgIDwvcmRmOlJERj4mI3hhOyAgPC9tZXRhZGF0YT4mI3hhOyAgPGRlZnMgaWQ9ImRlZnMxMDQ4NSIvPiYjeGE7ICA8c29kaXBvZGk6bmFtZWR2aWV3IHBhZ2Vjb2xvcj0iI2ZmZmZmZiIgYm9yZGVyY29sb3I9IiM2NjY2NjYiIGJvcmRlcm9wYWNpdHk9IjEiIG9iamVjdHRvbGVyYW5jZT0iMTAiIGdyaWR0b2xlcmFuY2U9IjEwIiBndWlkZXRvbGVyYW5jZT0iMTAiIGlua3NjYXBlOnBhZ2VvcGFjaXR5PSIwIiBpbmtzY2FwZTpwYWdlc2hhZG93PSIyIiBpbmtzY2FwZTp3aW5kb3ctd2lkdGg9IjE5MjAiIGlua3NjYXBlOndpbmRvdy1oZWlnaHQ9IjEwMTciIGlkPSJuYW1lZHZpZXcxMDQ4MyIgc2hvd2dyaWQ9ImZhbHNlIiBpbmtzY2FwZTp6b29tPSIxNyIgaW5rc2NhcGU6Y3g9IjI1IiBpbmtzY2FwZTpjeT0iMTUuNjI2IiBpbmtzY2FwZTp3aW5kb3cteD0iLTgiIGlua3NjYXBlOndpbmRvdy15PSItOCIgaW5rc2NhcGU6d2luZG93LW1heGltaXplZD0iMSIgaW5rc2NhcGU6Y3VycmVudC1sYXllcj0iRnhTeW1ib2wwLTA4MyIgZml0LW1hcmdpbi10b3A9IjAiIGZpdC1tYXJnaW4tbGVmdD0iMCIgZml0LW1hcmdpbi1yaWdodD0iMCIgZml0LW1hcmdpbi1ib3R0b209IjAiLz4mI3hhOyAgPGcgaWQ9ImcxMDQ4MCIgdHJhbnNmb3JtPSJ0cmFuc2xhdGUoMCwtOS4zNzUpIj4mI3hhOyAgICA8dGl0bGUgaWQ9InRpdGxlMTA0NzQiLz4mI3hhOyAgICA8cGF0aCBjbGFzcz0ibXNwb3J0YWxmeC1zdmctYzE0IiBkPSJtIDM5LjA2MywxOC43NSBjIDEuNTE0LDAgMi45MzQsMC4yODkgNC4yNiwwLjg2NyAxLjMyNiwwLjU3OCAyLjQ4MiwxLjM1OSAzLjQ2NywyLjM0NCAwLjk4NSwwLjk4NSAxLjc2NiwyLjE0IDIuMzQ0LDMuNDY3IDAuNTc4LDEuMzI3IDAuODY2LDIuNzQ2IDAuODY2LDQuMjYgMCwxLjUxNCAtMC4yODksMi45MzQgLTAuODY3LDQuMjYgLTAuNTc4LDEuMzI2IC0xLjM1OSwyLjQ4MiAtMi4zNDQsMy40NjcgLTAuOTg1LDAuOTg1IC0yLjE0LDEuNzY2IC0zLjQ2NywyLjM0NCAtMS4zMjcsMC41NzggLTIuNzQ3LDAuODY3IC00LjI2LDAuODY3IGggLTEyLjUgYyAtMS41MTQsMCAtMi45MzQsLTAuMjg5IC00LjI2LC0wLjg2NyAtMS4zMjYsLTAuNTc4IC0yLjQ4MiwtMS4zNTkgLTMuNDY3LC0yLjM0NCAtMC45ODUsLTAuOTg1IC0xLjc2NiwtMi4xNCAtMi4zNDQsLTMuNDY3IC0wLjU3OCwtMS4zMjcgLTAuODY3LC0yLjc0NyAtMC44NjcsLTQuMjYgMCwtMS41MTMgMC4yODksLTIuOTM0IDAuODY3LC00LjI2IDAuNTc4LC0xLjMyNiAxLjM1OSwtMi40ODIgMi4zNDQsLTMuNDY3IDAuOTg1LC0wLjk4NSAyLjE0LC0xLjc2NiAzLjQ2NywtMi4zNDQgMS4zMjcsLTAuNTc4IDIuNzQ3LC0wLjg2NyA0LjI2LC0wLjg2NyBoIDEuNTYzIHYgMy4xMjUgYyAtMS4yMzcsMCAtMi40MjEsMC4xNDIgLTMuNTUyLDAuNDI3IC0xLjEzMSwwLjI4NSAtMi4xMjgsMC43NDEgLTIuOTkxLDEuMzY3IC0wLjg2MywwLjYyNiAtMS41NSwxLjQzMiAtMi4wNjMsMi40MTcgLTAuNTEzLDAuOTg1IC0wLjc2OSwyLjE4NSAtMC43NjksMy42MDEgMCwxLjA3NCAwLjIwOCwyLjA4MyAwLjYyMywzLjAyNyAwLjQxNSwwLjk0NCAwLjk3NywxLjc3IDEuNjg1LDIuNDc4IDAuNzA4LDAuNzA4IDEuNTM0LDEuMjcgMi40NzgsMS42ODUgMC45NDQsMC40MTUgMS45NTMsMC42MjMgMy4wMjcsMC42MjMgaCAxMi41IGMgMS4wNzQsMCAyLjA4MywtMC4yMDggMy4wMjcsLTAuNjIzIDAuOTQ0LC0wLjQxNSAxLjc3LC0wLjk3NyAyLjQ3OCwtMS42ODUgMC43MDgsLTAuNzA4IDEuMjcsLTEuNTM0IDEuNjg1LC0yLjQ3OCAwLjQxNSwtMC45NDQgMC42MjMsLTEuOTUzIDAuNjIzLC0zLjAyNyAwLC0xLjQxNiAtMC4yNTYsLTIuNjE2IC0wLjc2OSwtMy42MDEgLTAuNTEzLC0wLjk4NSAtMS4yLC0xLjc5IC0yLjA2MywtMi40MTcgLTAuODYzLC0wLjYyNyAtMS44NiwtMS4wODIgLTIuOTkxLC0xLjM2NyAtMS4xMzEsLTAuMjg1IC0yLjMxNSwtMC40MjcgLTMuNTUyLC0wLjQyNyBWIDE4Ljc1IFoiIGlkPSJwYXRoMTA0NzYiIGlua3NjYXBlOmNvbm5lY3Rvci1jdXJ2YXR1cmU9IjAiIHN0eWxlPSJmaWxsOiM3ZmJhMDAiLz4mI3hhOyAgICA8cGF0aCBjbGFzcz0ibXNwb3J0YWxmeC1zdmctYzE1IiBkPSJtIDIxLjg3NSwzMS4yNSB2IC0zLjEyNSBjIDEuMjM3LDAgMi40MjEsLTAuMTQyIDMuNTUyLC0wLjQyNyAxLjEzMSwtMC4yODUgMi4xMjgsLTAuNzQxIDIuOTkxLC0xLjM2NyAwLjg2MywtMC42MjYgMS41NSwtMS40MzIgMi4wNjMsLTIuNDE3IDAuNTEzLC0wLjk4NSAwLjc2OSwtMi4xODUgMC43NjksLTMuNjAxIDAsLTEuMDc0IC0wLjIwOCwtMi4wODMgLTAuNjIzLC0zLjAyNyBDIDMwLjIxMiwxNi4zNDIgMjkuNjUsMTUuNTE2IDI4Ljk0MiwxNC44MDggMjguMjM0LDE0LjEgMjcuNDA4LDEzLjUzOCAyNi40NjQsMTMuMTIzIDI1LjUyLDEyLjcwOCAyNC41MTIsMTIuNSAyMy40MzgsMTIuNSBoIC0xMi41IGMgLTEuMDc0LDAgLTIuMDgzLDAuMjA4IC0zLjAyNywwLjYyMyAtMC45NDQsMC40MTUgLTEuNzcsMC45NzcgLTIuNDc4LDEuNjg1IC0wLjcwOCwwLjcwOCAtMS4yNywxLjUzNCAtMS42ODUsMi40NzggLTAuNDE1LDAuOTQ0IC0wLjYyMywxLjk1MyAtMC42MjMsMy4wMjcgMCwxLjQxNiAwLjI1NiwyLjYxNiAwLjc2OSwzLjYwMSAwLjUxMywwLjk4NSAxLjIsMS43OSAyLjA2MywyLjQxNyAwLjg2MywwLjYyNyAxLjg2LDEuMDgyIDIuOTkxLDEuMzY3IDEuMTMxLDAuMjg1IDIuMzE1LDAuNDI3IDMuNTUyLDAuNDI3IFYgMzEuMjUgSCAxMC45MzcgQyA5LjQyMywzMS4yNSA4LjAwMywzMC45NjEgNi42NzcsMzAuMzgzIDUuMzUxLDI5LjgwNSA0LjE5NSwyOS4wMjQgMy4yMSwyOC4wNCAyLjIyNSwyNy4wNTYgMS40NDQsMjUuOSAwLjg2NiwyNC41NzMgMC4yODgsMjMuMjQ2IDAsMjEuODI2IDAsMjAuMzEzIDAsMTguOCAwLjI4OSwxNy4zNzkgMC44NjcsMTYuMDUzIDEuNDQ1LDE0LjcyNyAyLjIyNiwxMy41NzEgMy4yMTEsMTIuNTg2IDQuMTk2LDExLjYwMSA1LjM1MSwxMC44MiA2LjY3OCwxMC4yNDIgOC4wMDUsOS42NjQgOS40MjUsOS4zNzUgMTAuOTM4LDkuMzc1IGggMTIuNSBjIDEuNTE0LDAgMi45MzQsMC4yODkgNC4yNiwwLjg2NyAxLjMyNiwwLjU3OCAyLjQ4MiwxLjM1OSAzLjQ2NywyLjM0NCAwLjk4NSwwLjk4NSAxLjc2NiwyLjE0IDIuMzQ0LDMuNDY3IDAuNTc4LDEuMzI3IDAuODY3LDIuNzQ3IDAuODY3LDQuMjYgMCwxLjUxMyAtMC4yODksMi45MzQgLTAuODY3LDQuMjYgLTAuNTc4LDEuMzI2IC0xLjM1OSwyLjQ4MiAtMi4zNDQsMy40NjcgLTAuOTg1LDAuOTg1IC0yLjE0LDEuNzY2IC0zLjQ2NywyLjM0NCAtMS4zMjcsMC41NzggLTIuNzQ3LDAuODY3IC00LjI2LDAuODY3IGggLTEuNTYzIHoiIGlkPSJwYXRoMTA0NzgiIGlua3NjYXBlOmNvbm5lY3Rvci1jdXJ2YXR1cmU9IjAiIHN0eWxlPSJmaWxsOiM1OWI0ZDkiLz4mI3hhOyAgPC9nPiYjeGE7PC9zdmc+;" vertex="1" parent="1">
          <mxGeometry x="449.35" y="440" width="80.65" height="50" as="geometry" />
        </mxCell>
        <mxCell id="c7hjdYba2SUFyFxSfcjP-11" value="Backend Policy to define regional backend" style="text;html=1;align=center;verticalAlign=middle;resizable=0;points=[];autosize=1;strokeColor=none;fillColor=none;" vertex="1" parent="1">
          <mxGeometry x="258.4" y="490" width="250" height="30" as="geometry" />
        </mxCell>
        <mxCell id="c7hjdYba2SUFyFxSfcjP-12" value="" style="shape=flexArrow;endArrow=classic;html=1;rounded=0;" edge="1" parent="1">
          <mxGeometry width="50" height="50" relative="1" as="geometry">
            <mxPoint x="250" y="490" as="sourcePoint" />
            <mxPoint x="210" y="560" as="targetPoint" />
          </mxGeometry>
        </mxCell>
        <mxCell id="c7hjdYba2SUFyFxSfcjP-13" value="" style="shape=flexArrow;endArrow=classic;html=1;rounded=0;" edge="1" parent="1">
          <mxGeometry width="50" height="50" relative="1" as="geometry">
            <mxPoint x="311.6" y="390" as="sourcePoint" />
            <mxPoint x="280" y="430" as="targetPoint" />
          </mxGeometry>
        </mxCell>
        <mxCell id="c7hjdYba2SUFyFxSfcjP-14" value="" style="shape=flexArrow;endArrow=classic;html=1;rounded=0;" edge="1" parent="1">
          <mxGeometry width="50" height="50" relative="1" as="geometry">
            <mxPoint x="160" y="240" as="sourcePoint" />
            <mxPoint x="380" y="280" as="targetPoint" />
            <Array as="points">
              <mxPoint x="380" y="240" />
            </Array>
          </mxGeometry>
        </mxCell>
        <mxCell id="c7hjdYba2SUFyFxSfcjP-15" value="Users traffic" style="text;html=1;align=center;verticalAlign=middle;resizable=0;points=[];autosize=1;strokeColor=none;fillColor=none;" vertex="1" parent="1">
          <mxGeometry x="80" y="270" width="90" height="30" as="geometry" />
        </mxCell>
        <mxCell id="c7hjdYba2SUFyFxSfcjP-16" value="" style="shape=flexArrow;endArrow=classic;html=1;rounded=0;exitX=0.937;exitY=1.033;exitDx=0;exitDy=0;exitPerimeter=0;" edge="1" parent="1" source="c7hjdYba2SUFyFxSfcjP-7">
          <mxGeometry width="50" height="50" relative="1" as="geometry">
            <mxPoint x="521.6" y="390" as="sourcePoint" />
            <mxPoint x="490" y="430" as="targetPoint" />
          </mxGeometry>
        </mxCell>
        <mxCell id="c7hjdYba2SUFyFxSfcjP-17" value="" style="shape=flexArrow;endArrow=classic;html=1;rounded=0;" edge="1" parent="1">
          <mxGeometry width="50" height="50" relative="1" as="geometry">
            <mxPoint x="530" y="500" as="sourcePoint" />
            <mxPoint x="565" y="560" as="targetPoint" />
          </mxGeometry>
        </mxCell>
        <mxCell id="c7hjdYba2SUFyFxSfcjP-18" value="" style="shape=image;verticalLabelPosition=bottom;labelBackgroundColor=#ffffff;verticalAlign=top;aspect=fixed;imageAspect=0;image=data:image/svg+xml,PHN2ZyB4bWxuczpjYz0iaHR0cDovL2NyZWF0aXZlY29tbW9ucy5vcmcvbnMjIiB4bWxuczpkYz0iaHR0cDovL3B1cmwub3JnL2RjL2VsZW1lbnRzLzEuMS8iIHhtbG5zOmlua3NjYXBlPSJodHRwOi8vd3d3Lmlua3NjYXBlLm9yZy9uYW1lc3BhY2VzL2lua3NjYXBlIiB4bWxuczpyZGY9Imh0dHA6Ly93d3cudzMub3JnLzE5OTkvMDIvMjItcmRmLXN5bnRheC1ucyMiIHhtbG5zOnNvZGlwb2RpPSJodHRwOi8vc29kaXBvZGkuc291cmNlZm9yZ2UubmV0L0RURC9zb2RpcG9kaS0wLmR0ZCIgeG1sbnM6c3ZnPSJodHRwOi8vd3d3LnczLm9yZy8yMDAwL3N2ZyIgeG1sbnM9Imh0dHA6Ly93d3cudzMub3JnLzIwMDAvc3ZnIiB4bWxuczp4bGluaz0iaHR0cDovL3d3dy53My5vcmcvMTk5OS94bGluayIgdmVyc2lvbj0iMS4xIiBpZD0ic3ZnODA0NzkiIGlua3NjYXBlOnZlcnNpb249IjAuOTIuMyAoMjQwNTU0NiwgMjAxOC0wMy0xMSkiIHNvZGlwb2RpOmRvY25hbWU9ImdpdC5zdmciIHg9IjBweCIgeT0iMHB4IiB2aWV3Qm94PSIwIDAgMzAuMzcgMzAuMzciIHN0eWxlPSJlbmFibGUtYmFja2dyb3VuZDpuZXcgMCAwIDMwLjM3IDMwLjM3OyIgeG1sOnNwYWNlPSJwcmVzZXJ2ZSI+JiN4YTs8c29kaXBvZGk6bmFtZWR2aWV3IGJvcmRlcmNvbG9yPSIjNjY2NjY2IiBib3JkZXJvcGFjaXR5PSIxIiBmaXQtbWFyZ2luLWJvdHRvbT0iMCIgZml0LW1hcmdpbi1sZWZ0PSIwIiBmaXQtbWFyZ2luLXJpZ2h0PSIwIiBmaXQtbWFyZ2luLXRvcD0iMCIgZ3JpZHRvbGVyYW5jZT0iMTAiIGd1aWRldG9sZXJhbmNlPSIxMCIgaWQ9Im5hbWVkdmlldzgwNDgxIiBpbmtzY2FwZTpjdXJyZW50LWxheWVyPSJzdmc4MDQ3OSIgaW5rc2NhcGU6Y3g9IjI0LjU0MDUyIiBpbmtzY2FwZTpjeT0iLTcuOTc4NjcxNyIgaW5rc2NhcGU6cGFnZW9wYWNpdHk9IjAiIGlua3NjYXBlOnBhZ2VzaGFkb3c9IjIiIGlua3NjYXBlOndpbmRvdy1oZWlnaHQ9IjEwMTciIGlua3NjYXBlOndpbmRvdy1tYXhpbWl6ZWQ9IjEiIGlua3NjYXBlOndpbmRvdy13aWR0aD0iMTkyMCIgaW5rc2NhcGU6d2luZG93LXg9Ii04IiBpbmtzY2FwZTp3aW5kb3cteT0iLTgiIGlua3NjYXBlOnpvb209IjYuOTUyMzU1MSIgb2JqZWN0dG9sZXJhbmNlPSIxMCIgcGFnZWNvbG9yPSIjZmZmZmZmIiBzaG93Z3JpZD0iZmFsc2UiPiYjeGE7CTwvc29kaXBvZGk6bmFtZWR2aWV3PiYjeGE7PGcgaWQ9Imc4MDQ3NyIgdHJhbnNmb3JtPSJ0cmFuc2xhdGUoLTIwLjgxNTYsLTAuNzQyMikiPiYjeGE7CTx0aXRsZSBpZD0idGl0bGU4MDQ2NyI+UGFnZS0xPC90aXRsZT4mI3hhOwk8ZyBpZD0iZ3JvdXA0MjQ4LTEiIHRyYW5zZm9ybT0idHJhbnNsYXRlKDIwLjYzMDYsLTM0Ljg0MjgpIj4mI3hhOwkJPHRpdGxlIGlkPSJ0aXRsZTgwNDY5Ij5HaXQ8L3RpdGxlPiYjeGE7CQk8ZyBpZD0ic2hhcGU0MjQ5LTIiPiYjeGE7CQkJPHRpdGxlIGlkPSJ0aXRsZTgwNDcxIj5TaGVldC40MjQ5PC90aXRsZT4mI3hhOwkJCTxwYXRoIGlkPSJwYXRoODA0NzMiIGlua3NjYXBlOmNvbm5lY3Rvci1jdXJ2YXR1cmU9IjAiIHN0eWxlPSJmaWxsOiNGNTREMjc7IiBkPSJNMzAsNDkuNDRsLTEzLjMtMTMuMyAgICAgYy0wLjc0LTAuNzQtMS45Mi0wLjc0LTIuNjYsMGwtMi44NSwyLjg1bDMuNDMsMy40M2MwLjI2LTAuMSwwLjUzLTAuMTYsMC44NC0wLjE2YzEuMjcsMCwyLjMsMS4wMywyLjMsMi4zMiAgICAgYzAsMC4yOS0wLjA1LDAuNTgtMC4xNSwwLjg0bDMuMzYsMy4zNmMwLjI1LTAuMTEsMC41NS0wLjE3LDAuODMtMC4xN2MxLjI4LDAsMi4zMSwxLjA1LDIuMzEsMi4zMmMwLDEuMjktMS4wMywyLjMxLTIuMzEsMi4zMSAgICAgYy0xLjI3LDAtMi4zMS0xLjAyLTIuMzEtMi4zMWMwLTAuMjksMC4wNi0wLjU4LDAuMTYtMC44NGwtMy4xNy0zLjE3djguMjZjMC43NywwLjM5LDEuMjcsMS4xNywxLjI3LDIuMDYgICAgIGMwLDEuMjktMS4wMiwyLjMyLTIuMjksMi4zMmMtMS4yOSwwLTIuMzItMS4wMy0yLjMyLTIuMzJjMC0wLjk4LDAuNjEtMS44MiwxLjQ5LTIuMTV2LTguMzZjLTAuODgtMC4zMy0xLjQ5LTEuMTctMS40OS0yLjE1ICAgICBjMC0wLjMsMC4wNi0wLjU4LDAuMTYtMC44NWwtMy40My0zLjQybC05LjEzLDkuMTNDMCw1MC4xOCwwLDUxLjM2LDAuNzQsNTIuMDlsMTMuMywxMy4zMWMwLjczLDAuNzQsMS45MiwwLjc0LDIuNjYsMEwzMCw1Mi4wOSAgICAgQzMwLjc0LDUxLjM2LDMwLjc0LDUwLjE4LDMwLDQ5LjQ0eiIvPiYjeGE7CQk8L2c+JiN4YTsJPC9nPiYjeGE7PC9nPiYjeGE7PC9zdmc+;" vertex="1" parent="1">
          <mxGeometry x="30" y="900" width="70" height="70" as="geometry" />
        </mxCell>
        <mxCell id="c7hjdYba2SUFyFxSfcjP-19" value="&lt;font style=&quot;font-size: 34px;&quot;&gt;Deployment Process&lt;/font&gt;" style="text;html=1;align=center;verticalAlign=middle;resizable=0;points=[];autosize=1;strokeColor=none;fillColor=none;" vertex="1" parent="1">
          <mxGeometry x="20" y="770" width="340" height="50" as="geometry" />
        </mxCell>
        <mxCell id="c7hjdYba2SUFyFxSfcjP-20" value="" style="shape=image;verticalLabelPosition=bottom;labelBackgroundColor=#ffffff;verticalAlign=top;aspect=fixed;imageAspect=0;image=data:image/svg+xml,PHN2ZyB4bWxuczpjYz0iaHR0cDovL2NyZWF0aXZlY29tbW9ucy5vcmcvbnMjIiB4bWxuczpkYz0iaHR0cDovL3B1cmwub3JnL2RjL2VsZW1lbnRzLzEuMS8iIHhtbG5zOmlua3NjYXBlPSJodHRwOi8vd3d3Lmlua3NjYXBlLm9yZy9uYW1lc3BhY2VzL2lua3NjYXBlIiB4bWxuczpyZGY9Imh0dHA6Ly93d3cudzMub3JnLzE5OTkvMDIvMjItcmRmLXN5bnRheC1ucyMiIHhtbG5zOnNvZGlwb2RpPSJodHRwOi8vc29kaXBvZGkuc291cmNlZm9yZ2UubmV0L0RURC9zb2RpcG9kaS0wLmR0ZCIgeG1sbnM6c3ZnPSJodHRwOi8vd3d3LnczLm9yZy8yMDAwL3N2ZyIgeG1sbnM9Imh0dHA6Ly93d3cudzMub3JnLzIwMDAvc3ZnIiB4bWxuczp4bGluaz0iaHR0cDovL3d3dy53My5vcmcvMTk5OS94bGluayIgdmVyc2lvbj0iMS4xIiBpZD0ic3ZnNzc5MjQiIGlua3NjYXBlOnZlcnNpb249IjAuOTIuMyAoMjQwNTU0NiwgMjAxOC0wMy0xMSkiIHNvZGlwb2RpOmRvY25hbWU9ImRhdGFfcGlwZWxpbmVzLnN2ZyIgeD0iMHB4IiB5PSIwcHgiIHZpZXdCb3g9IjAgMCA2Mi4zNyA0MC40MiIgc3R5bGU9ImVuYWJsZS1iYWNrZ3JvdW5kOm5ldyAwIDAgNjIuMzcgNDAuNDI7IiB4bWw6c3BhY2U9InByZXNlcnZlIj4mI3hhOzxzb2RpcG9kaTpuYW1lZHZpZXcgYm9yZGVyY29sb3I9IiM2NjY2NjYiIGJvcmRlcm9wYWNpdHk9IjEiIGZpdC1tYXJnaW4tYm90dG9tPSIwIiBmaXQtbWFyZ2luLWxlZnQ9IjAiIGZpdC1tYXJnaW4tcmlnaHQ9IjAiIGZpdC1tYXJnaW4tdG9wPSIwIiBncmlkdG9sZXJhbmNlPSIxMCIgZ3VpZGV0b2xlcmFuY2U9IjEwIiBpZD0ibmFtZWR2aWV3Nzc5MjYiIGlua3NjYXBlOmN1cnJlbnQtbGF5ZXI9InN2Zzc3OTI0IiBpbmtzY2FwZTpjeD0iNDUuMjI3NTg0IiBpbmtzY2FwZTpjeT0iMjAuMzQ0ODU2IiBpbmtzY2FwZTpwYWdlb3BhY2l0eT0iMCIgaW5rc2NhcGU6cGFnZXNoYWRvdz0iMiIgaW5rc2NhcGU6d2luZG93LWhlaWdodD0iMTAxNyIgaW5rc2NhcGU6d2luZG93LW1heGltaXplZD0iMSIgaW5rc2NhcGU6d2luZG93LXdpZHRoPSIxOTIwIiBpbmtzY2FwZTp3aW5kb3cteD0iLTgiIGlua3NjYXBlOndpbmRvdy15PSItOCIgaW5rc2NhcGU6em9vbT0iMTEuMzc2MzExIiBvYmplY3R0b2xlcmFuY2U9IjEwIiBwYWdlY29sb3I9IiNmZmZmZmYiIHNob3dncmlkPSJmYWxzZSI+JiN4YTsJPC9zb2RpcG9kaTpuYW1lZHZpZXc+JiN4YTs8ZyBpZD0iZzc3OTIyIj4mI3hhOwk8dGl0bGUgaWQ9InRpdGxlNzc5MDIiPlBhZ2UtMTwvdGl0bGU+JiN4YTsJPGcgaWQ9Imdyb3VwNTAwMS0xIj4mI3hhOwkJPHRpdGxlIGlkPSJ0aXRsZTc3OTA0Ij5EYXRhIFBpcGVsaW5lcy40OTQ8L3RpdGxlPiYjeGE7CQk8ZyBpZD0ic2hhcGU1MDAyLTIiIHRyYW5zZm9ybT0idHJhbnNsYXRlKDkuMjAwOTgsLTQuNTg4MDYpIj4mI3hhOwkJCTx0aXRsZSBpZD0idGl0bGU3NzkwNiI+U2hlZXQuNTAwMjwvdGl0bGU+JiN4YTsJCQk8cGF0aCBpZD0icGF0aDc3OTA4IiBpbmtzY2FwZTpjb25uZWN0b3ItY3VydmF0dXJlPSIwIiBzdHlsZT0iZmlsbDojMDA3MDhFOyIgZD0iTTAsOS4yMXYzMS4yMWg0Ny41NFY5LjIxSDB6Ii8+JiN4YTsJCTwvZz4mI3hhOwkJPGcgaWQ9InNoYXBlNTAwMy00Ij4mI3hhOwkJCTx0aXRsZSBpZD0idGl0bGU3NzkxMSI+U2hlZXQuNTAwMzwvdGl0bGU+JiN4YTsJCQk8cGF0aCBpZD0icGF0aDc3OTEzIiBpbmtzY2FwZTpjb25uZWN0b3ItY3VydmF0dXJlPSIwIiBzdHlsZT0iZmlsbDojMDA5MEI3OyIgZD0iTTAsNS44NUMwLDM0LjYsMCwzNC42LDAsMzQuNiAgICAgYzAsMy41MSwyLjM2LDUuODIsNS44OCw1LjgyYzMuMTYsMCw1Ljg4LTIuMzEsNS44OC01LjgyYzAtMjguNzUsMC0yOC43NSwwLTI4Ljc1QzExLjc2LDIuNzUsOS4wNCwwLDUuODgsMEMyLjM2LDAsMCwyLjc1LDAsNS44NSAgICAgeiIvPiYjeGE7CQk8L2c+JiN4YTsJCTxnIGlkPSJzaGFwZTUwMDQtNiIgdHJhbnNmb3JtPSJ0cmFuc2xhdGUoNTEuMTE2NikiPiYjeGE7CQkJPHRpdGxlIGlkPSJ0aXRsZTc3OTE2Ij5TaGVldC41MDA0PC90aXRsZT4mI3hhOwkJCTxwYXRoIGlkPSJwYXRoNzc5MTgiIGlua3NjYXBlOmNvbm5lY3Rvci1jdXJ2YXR1cmU9IjAiIHN0eWxlPSJmaWxsOiMwMDkwQjc7IiBkPSJNMCw1Ljg1QzAsMzQuNiwwLDM0LjYsMCwzNC42ICAgICBjMCwzLjUxLDIuNjUsNS44Miw1LjYyLDUuODJjMy4wMSwwLDUuNjMtMi4zMSw1LjYzLTUuODJjMC0yOC43NSwwLTI4Ljc1LDAtMjguNzVDMTEuMjUsMi43NSw4LjYzLDAsNS42MiwwQzIuNjUsMCwwLDIuNzUsMCw1Ljg1ICAgICB6Ii8+JiN4YTsJCTwvZz4mI3hhOwk8L2c+JiN4YTs8L2c+JiN4YTs8L3N2Zz4=;" vertex="1" parent="1">
          <mxGeometry x="120" y="911.78" width="72" height="46.45" as="geometry" />
        </mxCell>
        <mxCell id="c7hjdYba2SUFyFxSfcjP-23" style="edgeStyle=orthogonalEdgeStyle;rounded=0;orthogonalLoop=1;jettySize=auto;html=1;" edge="1" parent="1" source="c7hjdYba2SUFyFxSfcjP-22">
          <mxGeometry relative="1" as="geometry">
            <mxPoint x="270" y="1010" as="targetPoint" />
          </mxGeometry>
        </mxCell>
        <mxCell id="c7hjdYba2SUFyFxSfcjP-22" value="Deploy to environment" style="whiteSpace=wrap;html=1;" vertex="1" parent="1">
          <mxGeometry x="210" y="900" width="120" height="60" as="geometry" />
        </mxCell>
        <mxCell id="c7hjdYba2SUFyFxSfcjP-24" value="Jobs:&lt;div&gt;Deploy to both UKS and UKW&lt;/div&gt;&lt;div&gt;Run integration testing against both regions&lt;/div&gt;" style="whiteSpace=wrap;html=1;" vertex="1" parent="1">
          <mxGeometry x="210" y="1010" width="120" height="130" as="geometry" />
        </mxCell>
        <mxCell id="c7hjdYba2SUFyFxSfcjP-25" value="NOTE:&lt;div&gt;&lt;br&gt;&lt;/div&gt;&lt;div&gt;Nice to have blue green deployment in the future&lt;/div&gt;" style="text;html=1;align=center;verticalAlign=middle;resizable=0;points=[];autosize=1;strokeColor=none;fillColor=none;" vertex="1" parent="1">
          <mxGeometry x="330" y="1080" width="280" height="60" as="geometry" />
        </mxCell>
        <mxCell id="c7hjdYba2SUFyFxSfcjP-26" value="Requirements for failover&lt;div&gt;&lt;br&gt;&lt;/div&gt;&lt;div&gt;- Automation script to be run to change backend region&amp;nbsp;&lt;/div&gt;&lt;div&gt;Other changes will be required but this is just an example for AKS&lt;/div&gt;" style="text;html=1;align=center;verticalAlign=middle;resizable=0;points=[];autosize=1;strokeColor=none;fillColor=none;" vertex="1" parent="1">
          <mxGeometry x="440" y="200" width="370" height="70" as="geometry" />
        </mxCell>
      </root>
    </mxGraphModel>
  </diagram>
</mxfile>
